G04 ================== begin FILE IDENTIFICATION RECORD ==================*
G04 Layout Name:  C:/21-05-17/NE555_2303/allegro/NE555_2303.brd*
G04 Film Name:    BOTTOM*
G04 File Format:  Gerber RS274X*
G04 File Origin:  Cadence Allegro 16.6-P004*
G04 Origin Date:  Mon May 24 12:16:42 2021*
G04 *
G04 Layer:  BOARD GEOMETRY/OUTLINE*
G04 Layer:  ETCH/BOTTOM*
G04 Layer:  PIN/BOTTOM*
G04 Layer:  VIA CLASS/BOTTOM*
G04 *
G04 Offset:    (0.000 0.000)*
G04 Mirror:    No*
G04 Mode:      Positive*
G04 Rotation:  0*
G04 FullContactRelief:  No*
G04 UndefLineWidth:     0.200*
G04 ================== end FILE IDENTIFICATION RECORD ====================*
%FSLAX35Y35*MOMM*%
%IR0*IPPOS*OFA0.00000B0.00000*MIA0B0*SFA1.00000B1.00000*%
%ADD10C,1.27*%
%ADD11C,1.524*%
%ADD12C,1.651*%
%ADD13R,1.524X1.524*%
%ADD14C,1.*%
%ADD15C,.013*%
%ADD16C,.2*%
%ADD18C,2.528*%
%ADD17C,1.782*%
%ADD19C,2.656*%
%ADD20R,1.782X1.782*%
G75*
%LPD*%
G75*
G36*
G01X817700Y500000D02*
Y817700D01*
X500000D01*
Y4182300D01*
X817700D01*
Y4500000D01*
X4182300D01*
Y4182300D01*
X4500000D01*
Y817700D01*
X4182300D01*
Y500000D01*
X2937000D01*
G02X2926800Y510000I-10J10192D01*
G03X2661200I-132800J-2000D01*
G02X2651000Y500000I-10190J192D01*
G01X817700D01*
G37*
%LPC*%
G75*
G36*
G01X1855100Y915800D02*
G02X1760000Y1141100I-77081J100185D01*
G01X1761600Y1141300D01*
X2439800Y1819500D01*
Y1954900D01*
G02X2657500Y2078500I100170J77088D01*
G03X2676500I9500J3796D01*
G02X2911500I117500J-46500D01*
G03X2930500I9500J3796D01*
G02Y1985500I117500J-46500D01*
G03X2911500I-9500J-3796D01*
G02X2894200Y1954900I-117612J46303D01*
G01Y1611200D01*
G02X2693800I-100200J-87200D01*
G01Y1954900D01*
G02X2676500Y1985500I100312J76903D01*
G03X2657500I-9500J-3796D01*
G02X2640200Y1954900I-117612J46303D01*
G01Y1736500D01*
X2037300Y1133600D01*
G03X2044500Y1116200I7220J-7202D01*
G01X2752500D01*
X3455800Y1819500D01*
Y1990500D01*
X2777600Y2668700D01*
X2776000Y2668900D01*
G02X2676500Y2747500I18022J125093D01*
G03X2657500I-9500J-3796D01*
G02X2422500I-117500J46500D01*
G03X2403500I-9500J-3796D01*
G02X2254200Y2916300I-117518J46484D01*
G03X2258900Y2933400I-2529J9891D01*
G01X2022800Y3169500D01*
X2020900Y3169700D01*
G02X1931800Y3389200I11088J132335D01*
G01Y3768500D01*
X1514800Y4185500D01*
X1512900Y4185700D01*
G02X1656300Y4329100I11100J132300D01*
G01X1656500Y4327200D01*
X2132200Y3851500D01*
Y3389200D01*
G02X2164300Y3313100I-100242J-87103D01*
G01X2164500Y3311200D01*
X2556400Y2919300D01*
X2558000Y2919100D01*
G02X2657500Y2840500I-18022J-125093D01*
G03X2676500I9500J3796D01*
G02X2693800Y2871100I117612J-46303D01*
G01Y3478900D01*
G02X2668900Y3538000I100229J77024D01*
G01X2668700Y3539600D01*
X2523600Y3684700D01*
X2522000Y3684900D01*
G02X2665100Y3828000I18000J125100D01*
G01X2665300Y3826400D01*
X2810400Y3681300D01*
X2812000Y3681100D01*
G02X2894200Y3478900I-17986J-125120D01*
G01Y2871100D01*
G02X2911500Y2840500I-100312J-76903D01*
G03X2930500I9500J3796D01*
G02X3030000Y2919100I117522J-46493D01*
G01X3031600Y2919300D01*
X3201800Y3089500D01*
Y3478900D01*
G02X3402200I100200J77100D01*
G01Y3006500D01*
X3173300Y2777600D01*
X3173100Y2776000D01*
G02X3079800Y2671700I-125094J18021D01*
G03X3075100Y2654600I2529J-9891D01*
G01X3656200Y2073500D01*
Y1736500D01*
X2835500Y915800D01*
X1855100D01*
G37*
G54D18*
X762000Y2540000D03*
X2794000Y4064000D03*
X3810000Y1016000D03*
G54D17*
X762000Y2286000D03*
X1778000Y762000D03*
X3302000Y4318000D03*
X3810000Y762000D03*
G54D19*
X1524000Y3302000D03*
X2032000Y4318000D03*
G54D20*
X2286000Y2032000D03*
%LPD*%
G75*
G54D10*
X500000Y500000D03*
Y4500000D03*
X4500000Y500000D03*
Y4500000D03*
G54D11*
X762000Y2286000D03*
Y2540000D03*
X1778000Y762000D03*
Y1016000D03*
X2540000Y2032000D03*
Y2794000D03*
X2286000D03*
X2540000Y3810000D03*
X3048000Y2032000D03*
X2794000D03*
X3048000Y2794000D03*
X2794000D03*
X3302000Y3556000D03*
X2794000D03*
Y4064000D03*
X3302000Y4318000D03*
X3810000Y1016000D03*
Y762000D03*
G54D12*
X1524000Y3302000D03*
Y4318000D03*
X2032000Y3302000D03*
Y4318000D03*
X2794000Y508000D03*
Y1524000D03*
G54D13*
X2286000Y2032000D03*
G54D14*
G01X2794000Y2794000D02*
X3556000Y2032000D01*
Y1778000D01*
X2794000Y1016000D01*
X1778000D01*
G01X2540000Y2032000D02*
Y1778000D01*
X1778000Y1016000D01*
G01X2032000Y3302000D02*
Y3810000D01*
X1524000Y4318000D01*
G01X2540000Y2794000D02*
X2032000Y3302000D01*
G01X2540000Y3810000D02*
X2794000Y3556000D01*
G01Y2032000D02*
Y1524000D01*
G01Y3556000D02*
Y2794000D01*
G01X3302000Y3556000D02*
Y3048000D01*
X3048000Y2794000D01*
G54D15*
G01X762000Y2191800D02*
Y2286000D01*
G01D02*
Y2380200D01*
G01X667800Y2286000D02*
X762000D01*
G01D02*
X856200D01*
G01X1778000Y667800D02*
Y762000D01*
G01D02*
Y856200D01*
G01X1683800Y762000D02*
X1778000D01*
G01D02*
X1872200D01*
G01X2286000Y1937800D02*
Y2032000D01*
G01D02*
Y2126200D01*
G01X2191800Y2032000D02*
X2286000D01*
G01D02*
X2380200D01*
G01X3302000Y4223800D02*
Y4318000D01*
G01D02*
Y4412200D01*
G01X3207800Y4318000D02*
X3302000D01*
G01D02*
X3396200D01*
G01X3810000Y667800D02*
Y762000D01*
G01D02*
Y856200D01*
G01X3715800Y762000D02*
X3810000D01*
G01D02*
X3904200D01*
G54D16*
G01X0Y0D02*
Y5000000D01*
X5000000D01*
Y0D01*
X0D01*
M02*
