M48
METRIC,TZ
T01C.914
T02C1.067
T03C3.
;LEADER: 12 
;HEADER: 
;CODE  : ASCII 
;FILE  : NE555_2303-1-2.drl for board #Taaaaaj01152.tmp ... layers TOP and BOTTOM
;T01 Holesize 1. = 0.914000 Tolerance = +0.000000/-0.000000 PLATED MM Quantity = 19
;T02 Holesize 2. = 1.067000 Tolerance = +0.000000/-0.000000 PLATED MM Quantity = 6
;T03 Holesize 3. = 3.000000 Tolerance = +0.000000/-0.000000 NON_PLATED MM Quantity = 4
%
G90
T01
X762000Y2286000
Y2540000
X1778000Y762000
Y1016000
X2540000Y2032000
X2794000
X2286000
X2540000Y2794000
X2794000
X2286000
X2794000Y3556000
X2540000Y3810000
X2794000Y4064000
X3302000Y4318000
Y3556000
X3048000Y2794000
Y2032000
X3810000Y1016000
Y762000
T02
X2794000Y508000
Y1524000
X2032000Y3302000
X1524000
Y4318000
X2032000
T03
X500000Y500000
X4500000
Y4500000
X500000
M30
