M48
METRIC,TZ
T01C.8999
T02C.9144
T03C3.
;LEADER: 12 
;HEADER: 
;CODE  : ASCII 
;FILE  : DCPOWER2303-1-2.drl for board #Taaaaac02560.tmp ... layers TOP and BOTTOM
;T01 Holesize 1. = 0.899900 Tolerance = +0.000000/-0.000000 PLATED MM Quantity = 3
;T02 Holesize 2. = 0.914400 Tolerance = +0.000000/-0.000000 PLATED MM Quantity = 18
;T03 Holesize 3. = 3.000000 Tolerance = +0.000000/-0.000000 NON_PLATED MM Quantity = 4
%
G90
T01
X3302000Y2286000
X3556000
X3810000
T02
X508000Y1524000
Y1778000
X1295400Y2286000
Y1778000
Y1270000
Y762000
X2286000
Y1270000
Y1778000
Y2286000
X3302000Y1498600
Y1244600
X4064000Y1498600
Y736600
X4826000Y762000
Y1524000
X5334000
Y1270000
T03
X500000Y500000
Y2500000
X5500000
Y500000
M30
