G04 ================== begin FILE IDENTIFICATION RECORD ==================*
G04 Layout Name:  C:/21-05-10/DCPOWER2303/allegro/DCPOWER2303.brd*
G04 Film Name:    SST*
G04 File Format:  Gerber RS274X*
G04 File Origin:  Cadence Allegro 16.6-P004*
G04 Origin Date:  Mon May 17 10:31:45 2021*
G04 *
G04 Layer:  REF DES/SILKSCREEN_TOP*
G04 Layer:  PACKAGE GEOMETRY/SILKSCREEN_TOP*
G04 Layer:  BOARD GEOMETRY/OUTLINE*
G04 Layer:  BOARD GEOMETRY/DIMENSION*
G04 Layer:  BOARD GEOMETRY/SILKSCREEN_TOP*
G04 *
G04 Offset:    (0.0000 0.0000)*
G04 Mirror:    No*
G04 Mode:      Positive*
G04 Rotation:  0*
G04 FullContactRelief:  No*
G04 UndefLineWidth:     0.2000*
G04 ================== end FILE IDENTIFICATION RECORD ====================*
%FSLAX35Y35*MOMM*%
%IR0*IPPOS*OFA0.00000B0.00000*MIA0B0*SFA1.00000B1.00000*%
%ADD10C,.3*%
%ADD11C,.2*%
G75*
%LPD*%
G75*
G54D10*
G01X878200Y177800D02*
Y577800D01*
X978200D01*
X1018200Y557790D01*
X1048200Y531130D01*
X1073200Y491140D01*
X1093200Y444460D01*
X1098200Y377790D01*
X1093200Y311130D01*
X1073200Y264460D01*
X1048200Y224460D01*
X1018200Y197800D01*
X978200Y177800D01*
X878200D01*
G01X1438200Y544460D02*
X1408200Y564470D01*
X1373200Y577800D01*
X1333200D01*
X1288190Y557790D01*
X1253200Y524470D01*
X1228200Y484460D01*
X1208190Y417800D01*
X1203190Y357800D01*
X1213200Y297800D01*
X1228200Y257800D01*
X1258200Y217790D01*
X1293200Y191130D01*
X1328200Y177800D01*
X1363200D01*
X1398200Y191130D01*
X1428200Y211130D01*
X1453210Y237790D01*
G01X1908200Y177800D02*
Y577800D01*
X2028200D01*
X2068200Y557790D01*
X2098200Y511140D01*
X2108200Y457800D01*
X2098200Y404470D01*
X2073200Y364460D01*
X2028200Y344460D01*
X1908200D01*
G01X2348200Y177800D02*
X2308190Y184470D01*
X2273200Y211130D01*
X2243200Y251130D01*
X2223190Y297800D01*
X2213200Y351130D01*
Y404470D01*
X2223190Y457800D01*
X2243200Y504470D01*
X2273200Y544460D01*
X2308190Y571130D01*
X2348200Y577800D01*
X2388200Y571130D01*
X2423200Y544460D01*
X2453200Y504470D01*
X2473210Y457800D01*
X2483200Y404470D01*
Y351130D01*
X2473210Y297800D01*
X2453200Y251130D01*
X2423200Y211130D01*
X2388200Y184470D01*
X2348200Y177800D01*
G01X2538200Y577800D02*
X2608190Y177800D01*
X2688200Y577800D01*
X2768200Y177800D01*
X2838200Y577800D01*
G01X3128200Y177800D02*
X2928200D01*
Y577800D01*
X3128200D01*
G01X3048200Y384470D02*
X2928200D01*
G01X3268200Y177800D02*
Y577800D01*
X3393200D01*
X3433200Y557790D01*
X3458200Y531130D01*
X3468200Y477800D01*
X3458200Y424460D01*
X3428200Y391140D01*
X3393200Y371130D01*
X3268200D01*
G01X3393200D02*
X3468200Y177800D01*
G01X3953200Y511140D02*
X3983200Y551130D01*
X4018200Y571130D01*
X4058200Y577800D01*
X4108200Y564470D01*
X4143200Y531130D01*
X4153200Y491140D01*
X4148200Y451120D01*
X4128200Y417800D01*
X4028200Y351130D01*
X3983200Y304460D01*
X3953200Y237790D01*
X3943200Y177800D01*
X4153200D01*
G01X4278200Y257800D02*
X4308190Y211130D01*
X4348190Y184470D01*
X4393200Y177800D01*
X4433200Y184470D01*
X4473200Y217790D01*
X4498200Y257800D01*
X4503200Y297800D01*
X4493200Y344460D01*
X4458200Y377790D01*
X4423200Y391140D01*
X4378200D01*
G01X4423200D02*
X4453200Y411130D01*
X4478200Y444460D01*
X4488200Y484460D01*
X4478200Y524470D01*
X4453200Y557790D01*
X4408200Y577800D01*
X4363200Y571130D01*
X4318200Y544460D01*
G01X4728200Y577800D02*
X4688190Y564470D01*
X4658200Y531130D01*
X4638200Y491140D01*
X4623200Y437790D01*
X4618200Y377790D01*
X4623200Y317790D01*
X4638200Y264460D01*
X4658200Y224460D01*
X4688190Y191130D01*
X4728200Y177800D01*
X4768200Y191130D01*
X4798200Y224460D01*
X4818200Y264460D01*
X4833200Y317790D01*
X4838200Y377790D01*
X4833200Y437790D01*
X4818200Y491140D01*
X4798200Y531130D01*
X4768200Y564470D01*
X4728200Y577800D01*
G01X4958200Y257800D02*
X4988190Y211130D01*
X5028190Y184470D01*
X5073200Y177800D01*
X5113200Y184470D01*
X5153200Y217790D01*
X5178200Y257800D01*
X5183200Y297800D01*
X5173200Y344460D01*
X5138200Y377790D01*
X5103200Y391140D01*
X5058200D01*
G01X5103200D02*
X5133200Y411130D01*
X5158200Y444460D01*
X5168200Y484460D01*
X5158200Y524470D01*
X5133200Y557790D01*
X5088200Y577800D01*
X5043200Y571130D01*
X4998200Y544460D01*
G54D11*
G01X-504010Y256230D02*
X-490680Y268160D01*
X-482680Y282090D01*
X-480010Y300000D01*
X-485340Y317910D01*
X-496010Y331830D01*
X-514680Y341780D01*
X-536010Y343770D01*
X-557350Y339790D01*
X-570690Y329840D01*
X-581350Y315920D01*
X-584020Y301990D01*
X-581350Y288060D01*
X-570690Y270160D01*
X-640030Y276120D01*
Y329840D01*
G01X-100000Y0D02*
X-650000D01*
G01X-337500Y-400000D02*
X-400000Y0D01*
X-462500Y-400000D01*
X-337500D01*
G01X0Y0D02*
X-1050000D01*
G01X-800000Y1500000D02*
Y0D01*
G01X-862500Y400000D02*
X-800000Y0D01*
X-737500Y400000D01*
X-862500D01*
G01X-100000Y500000D02*
X-650000D01*
G01X-462500Y900000D02*
X-400000Y500000D01*
X-337500Y900000D01*
X-462500D01*
G01X-480010Y1119990D02*
X-640030D01*
X-608030Y1096110D01*
G01X-480010D02*
Y1143860D01*
G01X-512010Y1236240D02*
X-493340Y1248170D01*
X-482680Y1264090D01*
X-480010Y1282000D01*
X-482680Y1297920D01*
X-496010Y1313840D01*
X-512010Y1323780D01*
X-528020Y1325770D01*
X-546680Y1321790D01*
X-560020Y1307860D01*
X-565360Y1293940D01*
Y1276030D01*
G01Y1293940D02*
X-573350Y1305880D01*
X-586690Y1315830D01*
X-602690Y1319800D01*
X-618690Y1315830D01*
X-632030Y1305880D01*
X-640030Y1287970D01*
X-637360Y1270060D01*
X-626690Y1252160D01*
G01X-100000Y500000D02*
X-650000D01*
G01X-462500Y900000D02*
X-400000Y500000D01*
X-337500Y900000D01*
X-462500D01*
G01X-100000Y1800000D02*
X-650000D01*
G01X-337500Y1400000D02*
X-400000Y1800000D01*
X-462500Y1400000D01*
X-337500D01*
G01X-912010Y1376220D02*
X-893340Y1388150D01*
X-882680Y1404070D01*
X-880010Y1421980D01*
X-882680Y1437900D01*
X-896010Y1453820D01*
X-912010Y1463760D01*
X-928020Y1465750D01*
X-946680Y1461770D01*
X-960020Y1447840D01*
X-965360Y1433920D01*
Y1416010D01*
G01Y1433920D02*
X-973350Y1445860D01*
X-986690Y1455810D01*
X-1002690Y1459780D01*
X-1018690Y1455810D01*
X-1032030Y1445860D01*
X-1040030Y1427950D01*
X-1037360Y1410040D01*
X-1026690Y1392140D01*
G01X-1040030Y1580010D02*
X-1034700Y1564090D01*
X-1021360Y1552160D01*
X-1005360Y1544190D01*
X-984020Y1538230D01*
X-960020Y1536240D01*
X-936010Y1538230D01*
X-914680Y1544190D01*
X-898680Y1552160D01*
X-885340Y1564090D01*
X-880010Y1580010D01*
X-885340Y1595930D01*
X-898680Y1607860D01*
X-914680Y1615830D01*
X-936010Y1621790D01*
X-960020Y1623780D01*
X-984020Y1621790D01*
X-1005360Y1615830D01*
X-1021360Y1607860D01*
X-1034700Y1595930D01*
X-1040030Y1580010D01*
G01X-800000Y1500000D02*
Y3000000D01*
G01X-100000Y2500000D02*
X-650000D01*
G01X-337500Y2100000D02*
X-400000Y2500000D01*
X-462500Y2100000D01*
X-337500D01*
G01X-737500Y2600000D02*
X-800000Y3000000D01*
X-862500Y2600000D01*
X-737500D01*
G01X-504010Y2656230D02*
X-490680Y2668160D01*
X-482680Y2682090D01*
X-480010Y2700000D01*
X-485340Y2717910D01*
X-496010Y2731830D01*
X-514680Y2741780D01*
X-536010Y2743770D01*
X-557350Y2739790D01*
X-570690Y2729840D01*
X-581350Y2715920D01*
X-584020Y2701990D01*
X-581350Y2688060D01*
X-570690Y2670160D01*
X-640030Y2676120D01*
Y2729840D01*
G01X-100000Y3000000D02*
X-650000D01*
G01X-462500Y3400000D02*
X-400000Y3000000D01*
X-337500Y3400000D01*
X-462500D01*
G01X0Y3000000D02*
X-1050000D01*
G01X0Y0D02*
Y3000000D01*
X6000000D01*
Y0D01*
X0D01*
G01X-400000Y300000D02*
Y0D01*
G01Y300000D02*
Y500000D01*
G01Y1200000D02*
Y500000D01*
G01Y1200000D02*
Y1800000D01*
G01Y2700000D02*
Y2500000D01*
G01Y2700000D02*
Y3000000D01*
G01X0Y3100000D02*
Y3650000D01*
G01X-400000Y3337500D02*
X0Y3400000D01*
X-400000Y3462500D01*
Y3337500D01*
G01X0Y3000000D02*
Y4050000D01*
G01X256230Y3504010D02*
X268160Y3490680D01*
X282090Y3482680D01*
X300000Y3480010D01*
X317910Y3485340D01*
X331830Y3496010D01*
X341780Y3514680D01*
X343770Y3536010D01*
X339790Y3557350D01*
X329840Y3570690D01*
X315920Y3581350D01*
X301990Y3584020D01*
X288060Y3581350D01*
X270160Y3570690D01*
X276120Y3640030D01*
X329840D01*
G01X300000Y3400000D02*
X0D01*
G01X300000D02*
X500000D01*
G01X2800000Y3800000D02*
X0D01*
G01X400000Y3862500D02*
X0Y3800000D01*
X400000Y3737500D01*
Y3862500D01*
G01X381000Y1905000D02*
X635000D01*
Y1397000D01*
X381000D01*
Y1905000D01*
G01X411060Y2006600D02*
X419100Y1993900D01*
X428750Y1985430D01*
X440010Y1981200D01*
X452880Y1985430D01*
X462530Y1993900D01*
X472190Y2006600D01*
X475400Y2023530D01*
Y2108200D01*
G01X572770Y1981200D02*
Y2108200D01*
X553470Y2082800D01*
G01Y1981200D02*
X592070D01*
G01X500000Y3100000D02*
Y3650000D01*
G01X900000Y3462500D02*
X500000Y3400000D01*
X900000Y3337500D01*
Y3462500D01*
G01X1653710Y934720D02*
Y1061720D01*
X1685880D01*
X1698750Y1055370D01*
X1708400Y1046900D01*
X1716450Y1034210D01*
X1722880Y1019380D01*
X1724490Y998220D01*
X1722880Y977050D01*
X1716450Y962230D01*
X1708400Y949530D01*
X1698750Y941070D01*
X1685880Y934720D01*
X1653710D01*
G01X1783250Y960120D02*
X1792900Y945300D01*
X1805770Y936840D01*
X1820250Y934720D01*
X1833120Y936840D01*
X1845990Y947420D01*
X1854030Y960120D01*
X1855640Y972820D01*
X1852420Y987630D01*
X1841160Y998220D01*
X1829900Y1002450D01*
X1815420D01*
G01X1829900D02*
X1839550Y1008800D01*
X1847600Y1019380D01*
X1850810Y1032090D01*
X1847600Y1044790D01*
X1839550Y1055370D01*
X1825070Y1061720D01*
X1810600Y1059600D01*
X1796120Y1051140D01*
G01X2032000Y635000D02*
X1549400D01*
Y889000D01*
X2032000D01*
Y635000D01*
G01Y1651000D02*
X1549400D01*
Y1905000D01*
X2032000D01*
Y1651000D01*
G01X1653710Y1442720D02*
Y1569720D01*
X1685880D01*
X1698750Y1563370D01*
X1708400Y1554900D01*
X1716450Y1542210D01*
X1722880Y1527380D01*
X1724490Y1506220D01*
X1722880Y1485050D01*
X1716450Y1470230D01*
X1708400Y1457530D01*
X1698750Y1449070D01*
X1685880Y1442720D01*
X1653710D01*
G01X1837940D02*
Y1569720D01*
X1778420Y1478700D01*
X1858860D01*
G01X2032000Y1143000D02*
X1549400D01*
Y1397000D01*
X2032000D01*
Y1143000D01*
G01X1653710Y1950720D02*
Y2077720D01*
X1685880D01*
X1698750Y2071370D01*
X1708400Y2062900D01*
X1716450Y2050210D01*
X1722880Y2035380D01*
X1724490Y2014220D01*
X1722880Y1993050D01*
X1716450Y1978230D01*
X1708400Y1965530D01*
X1698750Y1957070D01*
X1685880Y1950720D01*
X1653710D01*
G01X1818640D02*
Y2077720D01*
X1799340Y2052320D01*
G01Y1950720D02*
X1837940D01*
G01X1689270Y2514600D02*
Y2641600D01*
X1721440D01*
X1734310Y2635250D01*
X1743960Y2626780D01*
X1752010Y2614090D01*
X1758440Y2599260D01*
X1760050Y2578100D01*
X1758440Y2556930D01*
X1752010Y2542110D01*
X1743960Y2529410D01*
X1734310Y2520950D01*
X1721440Y2514600D01*
X1689270D01*
G01X1823630Y2620430D02*
X1833290Y2633130D01*
X1844550Y2639480D01*
X1857420Y2641600D01*
X1873500Y2637370D01*
X1884770Y2626780D01*
X1887980Y2614090D01*
X1886370Y2601380D01*
X1879940Y2590800D01*
X1847770Y2569630D01*
X1833290Y2554820D01*
X1823630Y2533650D01*
X1820420Y2514600D01*
X1887980D01*
G01X2032000Y2159000D02*
X1549400D01*
Y2413000D01*
X2032000D01*
Y2159000D01*
G01X1943100Y635000D02*
Y889000D01*
G01X1955800Y635000D02*
Y889000D01*
G01X1943100Y1651000D02*
Y1905000D01*
G01X1955800Y1651000D02*
Y1905000D01*
G01X1943100Y1143000D02*
Y1397000D01*
G01X1955800Y1143000D02*
Y1397000D01*
G01X1943100Y2159000D02*
Y2413000D01*
G01X1955800Y2159000D02*
Y2413000D01*
G01X3272620Y1792820D02*
X3262970Y1799170D01*
X3251710Y1803400D01*
X3238840D01*
X3224360Y1797050D01*
X3213100Y1786470D01*
X3205060Y1773770D01*
X3198620Y1752600D01*
X3197010Y1733550D01*
X3200230Y1714500D01*
X3205060Y1701800D01*
X3214710Y1689100D01*
X3225970Y1680630D01*
X3237230Y1676400D01*
X3248490D01*
X3259750Y1680630D01*
X3269400Y1686980D01*
X3277450Y1695450D01*
G01X3366770Y1676400D02*
Y1803400D01*
X3347470Y1778000D01*
G01Y1676400D02*
X3386070D01*
G01X3556000Y1371600D02*
G03I-254000J0D01*
G01X3098870Y2773000D02*
Y2681980D01*
X3105300Y2662930D01*
X3118170Y2650230D01*
X3134260Y2646000D01*
X3150350Y2650230D01*
X3163220Y2662930D01*
X3169650Y2681980D01*
Y2773000D01*
G01X3263800Y2646000D02*
Y2773000D01*
X3244500Y2747600D01*
G01Y2646000D02*
X3283100D01*
G01X3048000Y2095000D02*
Y2553000D01*
X4064000D01*
Y2095000D01*
X3048000D01*
G01Y2433000D02*
X4064000D01*
G01X2682190Y3946680D02*
X2696110Y3965360D01*
X2708050Y3976020D01*
X2723970Y3981350D01*
X2737900Y3976020D01*
X2747840Y3965360D01*
X2755810Y3949350D01*
X2757790Y3930680D01*
X2755810Y3914680D01*
X2747840Y3898680D01*
X2735910Y3885340D01*
X2721980Y3880010D01*
X2706060Y3885340D01*
X2692140Y3901340D01*
X2684170Y3925350D01*
X2682190Y3952020D01*
X2686160Y3986690D01*
X2692140Y4005360D01*
X2702080Y4024030D01*
X2716010Y4037360D01*
X2729940Y4040030D01*
X2743870Y4034700D01*
X2753820Y4021360D01*
G01X2880010Y4040030D02*
X2864090Y4034700D01*
X2852160Y4021360D01*
X2844190Y4005360D01*
X2838230Y3984020D01*
X2836240Y3960020D01*
X2838230Y3936010D01*
X2844190Y3914680D01*
X2852160Y3898680D01*
X2864090Y3885340D01*
X2880010Y3880010D01*
X2895930Y3885340D01*
X2907860Y3898680D01*
X2915830Y3914680D01*
X2921790Y3936010D01*
X2923780Y3960020D01*
X2921790Y3984020D01*
X2915830Y4005360D01*
X2907860Y4021360D01*
X2895930Y4034700D01*
X2880010Y4040030D01*
G01X2800000Y3800000D02*
X6000000D01*
G01X4000500Y673100D02*
X3937000D01*
Y1562100D01*
X4000500D01*
G01X4127500D02*
X4191000D01*
Y673100D01*
X4127500D01*
G01X4009220Y1792820D02*
X3999570Y1799170D01*
X3988310Y1803400D01*
X3975440D01*
X3960960Y1797050D01*
X3949700Y1786470D01*
X3941660Y1773770D01*
X3935220Y1752600D01*
X3933610Y1733550D01*
X3936830Y1714500D01*
X3941660Y1701800D01*
X3951310Y1689100D01*
X3962570Y1680630D01*
X3973830Y1676400D01*
X3985090D01*
X3996350Y1680630D01*
X4006000Y1686980D01*
X4014050Y1695450D01*
G01X4072800Y1782230D02*
X4082460Y1794930D01*
X4093720Y1801280D01*
X4106590Y1803400D01*
X4122670Y1799170D01*
X4133940Y1788580D01*
X4137150Y1775890D01*
X4135540Y1763180D01*
X4129110Y1752600D01*
X4096940Y1731430D01*
X4082460Y1716620D01*
X4072800Y1695450D01*
X4069590Y1676400D01*
X4137150D01*
G01X4762500Y698500D02*
X4699000D01*
Y1587500D01*
X4762500D01*
G01X4889500D02*
X4953000D01*
Y698500D01*
X4889500D01*
G01X4771220Y1843620D02*
X4761570Y1849970D01*
X4750310Y1854200D01*
X4737440D01*
X4722960Y1847850D01*
X4711700Y1837270D01*
X4703660Y1824570D01*
X4697220Y1803400D01*
X4695610Y1784350D01*
X4698830Y1765300D01*
X4703660Y1752600D01*
X4713310Y1739900D01*
X4724570Y1731430D01*
X4735830Y1727200D01*
X4747090D01*
X4758350Y1731430D01*
X4768000Y1737780D01*
X4776050Y1746250D01*
G01X4829980Y1752600D02*
X4839630Y1737780D01*
X4852500Y1729320D01*
X4866980Y1727200D01*
X4879850Y1729320D01*
X4892720Y1739900D01*
X4900760Y1752600D01*
X4902370Y1765300D01*
X4899150Y1780110D01*
X4887890Y1790700D01*
X4876630Y1794930D01*
X4862150D01*
G01X4876630D02*
X4886280Y1801280D01*
X4894330Y1811860D01*
X4897540Y1824570D01*
X4894330Y1837270D01*
X4886280Y1847850D01*
X4871800Y1854200D01*
X4857330Y1852080D01*
X4842850Y1843620D01*
G01X5211660Y1803400D02*
X5219700Y1790700D01*
X5229350Y1782230D01*
X5240610Y1778000D01*
X5253480Y1782230D01*
X5263130Y1790700D01*
X5272790Y1803400D01*
X5276000Y1820330D01*
Y1905000D01*
G01X5342800Y1883830D02*
X5352460Y1896530D01*
X5363720Y1902880D01*
X5376590Y1905000D01*
X5392670Y1900770D01*
X5403940Y1890180D01*
X5407150Y1877490D01*
X5405540Y1864780D01*
X5399110Y1854200D01*
X5366940Y1833030D01*
X5352460Y1818220D01*
X5342800Y1797050D01*
X5339590Y1778000D01*
X5407150D01*
G01X5207000Y1651000D02*
X5461000D01*
Y1143000D01*
X5207000D01*
Y1651000D01*
G01X5500000Y3100000D02*
Y3650000D01*
G01X5100000Y3337500D02*
X5500000Y3400000D01*
X5100000Y3462500D01*
Y3337500D01*
G01X5656230Y3504010D02*
X5668160Y3490680D01*
X5682090Y3482680D01*
X5700000Y3480010D01*
X5717910Y3485340D01*
X5731830Y3496010D01*
X5741780Y3514680D01*
X5743770Y3536010D01*
X5739790Y3557350D01*
X5729840Y3570690D01*
X5715920Y3581350D01*
X5701990Y3584020D01*
X5688060Y3581350D01*
X5670160Y3570690D01*
X5676120Y3640030D01*
X5729840D01*
G01X5700000Y3400000D02*
X5500000D01*
G01X5600000Y3737500D02*
X6000000Y3800000D01*
X5600000Y3862500D01*
Y3737500D01*
G01X6100000Y0D02*
X6650000D01*
G01X6400000Y800000D02*
Y0D01*
G01X6337500Y400000D02*
X6400000Y0D01*
X6462500Y400000D01*
X6337500D01*
G01X6319990Y719990D02*
X6159970D01*
X6191970Y696110D01*
G01X6319990D02*
Y743860D01*
G01X6295990Y836240D02*
X6309320Y848170D01*
X6317320Y862100D01*
X6319990Y880010D01*
X6314660Y897920D01*
X6303990Y911840D01*
X6285320Y921790D01*
X6263990Y923780D01*
X6242650Y919800D01*
X6229310Y909850D01*
X6218650Y895930D01*
X6215980Y882000D01*
X6218650Y868070D01*
X6229310Y850170D01*
X6159970Y856130D01*
Y909850D01*
G01X6400000Y800000D02*
Y1500000D01*
G01X6100000D02*
X6650000D01*
G01X6462500Y1100000D02*
X6400000Y1500000D01*
X6337500Y1100000D01*
X6462500D01*
G01X6000000Y3100000D02*
Y3650000D01*
G01X6400000Y3462500D02*
X6000000Y3400000D01*
X6400000Y3337500D01*
Y3462500D01*
G01X6000000Y3000000D02*
Y4050000D01*
G01X5700000Y3400000D02*
X6000000D01*
M02*
