G04 ================== begin FILE IDENTIFICATION RECORD ==================*
G04 Layout Name:  C:/21-05-17/NE555_2303/allegro/NE555_2303.brd*
G04 Film Name:    DD*
G04 File Format:  Gerber RS274X*
G04 File Origin:  Cadence Allegro 16.6-P004*
G04 Origin Date:  Mon May 24 12:16:42 2021*
G04 *
G04 Layer:  MANUFACTURING/NCDRILL_LEGEND*
G04 Layer:  MANUFACTURING/NCDRILL_FIGURE*
G04 Layer:  MANUFACTURING/NCLEGEND-1-2*
G04 Layer:  BOARD GEOMETRY/OUTLINE*
G04 *
G04 Offset:    (0.000 0.000)*
G04 Mirror:    No*
G04 Mode:      Positive*
G04 Rotation:  0*
G04 FullContactRelief:  No*
G04 UndefLineWidth:     0.200*
G04 ================== end FILE IDENTIFICATION RECORD ====================*
%FSLAX35Y35*MOMM*%
%IR0*IPPOS*OFA0.00000B0.00000*MIA0B0*SFA1.00000B1.00000*%
%AMMACRO12*
1,1,.2,.5335,.5335*
20,1,.2,.5335,.5335,.5335,-.5335,0.0*
1,1,.2,.5335,-.5335*
20,1,.2,.5335,-.5335,-.5335,-.5335,0.0*
1,1,.2,-.5335,-.5335*
20,1,.2,-.5335,-.5335,-.5335,.5335,0.0*
1,1,.2,-.5335,.5335*
20,1,.2,-.5335,.5335,.5335,.5335,0.0*
1,1,.2,.5335,.5335*
%
%ADD12MACRO12*%
%AMMACRO11*
1,1,.2,.457,0.0*
20,1,.2,.457,0.0,-.457,0.0,0.0*
1,1,.2,-.457,0.0*
1,1,.2,0.0,.457*
20,1,.2,0.0,.457,0.0,-.457,0.0*
1,1,.2,0.0,-.457*
%
%ADD11MACRO11*%
%AMMACRO10*
1,1,.2,1.5,0.0*
20,1,.2,1.5,0.0,.75,1.299038,0.0*
1,1,.2,.75,1.299038*
20,1,.2,.75,1.299038,-.75,1.299038,0.0*
1,1,.2,-.75,1.299038*
20,1,.2,-.75,1.299038,-1.5,0.0,0.0*
1,1,.2,-1.5,0.0*
20,1,.2,-1.5,0.0,-.75,-1.299038,0.0*
1,1,.2,-.75,-1.299038*
20,1,.2,-.75,-1.299038,.75,-1.299038,0.0*
1,1,.2,.75,-1.299038*
20,1,.2,.75,-1.299038,1.5,0.0,0.0*
1,1,.2,1.5,0.0*
%
%ADD10MACRO10*%
%ADD13C,.2*%
G75*
%LPD*%
G75*
G54D10*
X500000Y500000D03*
Y4500000D03*
X1141500Y-4115600D03*
X4500000Y500000D03*
Y4500000D03*
G54D11*
X1141500Y-2688200D03*
X762000Y2286000D03*
Y2540000D03*
X1778000Y762000D03*
Y1016000D03*
X2540000Y2032000D03*
X2286000D03*
X2540000Y2794000D03*
X2286000D03*
X2540000Y3810000D03*
X3048000Y2032000D03*
X2794000D03*
X3048000Y2794000D03*
X2794000D03*
X3302000Y3556000D03*
X2794000D03*
Y4064000D03*
X3302000Y4318000D03*
X3810000Y1016000D03*
Y762000D03*
G54D12*
X1141500Y-3402000D03*
X1524000Y3302000D03*
Y4318000D03*
X2032000Y3302000D03*
Y4318000D03*
X2794000Y508000D03*
Y1524000D03*
G54D13*
G01X0Y-4472500D02*
Y-254000D01*
X12281000D01*
Y-4472500D01*
X0D01*
G01Y-3758800D02*
X12281000D01*
G01X0Y-3045100D02*
X12281000D01*
G01X279400Y-2094000D02*
Y-1776500D01*
X429000D01*
G01X373900Y-1930000D02*
X279400D01*
G01X621900Y-1776500D02*
X716300D01*
G01X669100D02*
Y-2094000D01*
G01X621900D02*
X716300D01*
G01X1007600Y-1935300D02*
X1086400D01*
Y-2030500D01*
X1062700Y-2062300D01*
X1035200Y-2083400D01*
X995800Y-2094000D01*
X956400Y-2083400D01*
X928900Y-2062300D01*
X905300Y-2030500D01*
X889500Y-1993500D01*
X881600Y-1951100D01*
Y-1914100D01*
X889500Y-1882300D01*
X905300Y-1845300D01*
X928900Y-1813500D01*
X952500Y-1792400D01*
X984000Y-1776500D01*
X1011600D01*
X1043000Y-1787100D01*
X1066700Y-1808300D01*
G01X1212300Y-1776500D02*
Y-2004000D01*
X1228000Y-2051700D01*
X1259500Y-2083400D01*
X1298900Y-2094000D01*
X1338300Y-2083400D01*
X1369800Y-2051700D01*
X1385500Y-2004000D01*
Y-1776500D01*
G01X1535100Y-2094000D02*
Y-1776500D01*
X1633500D01*
X1665000Y-1792400D01*
X1684700Y-1813500D01*
X1692500Y-1855900D01*
X1684700Y-1898200D01*
X1661000Y-1924700D01*
X1633500Y-1940500D01*
X1535100D01*
G01X1633500D02*
X1692500Y-2094000D01*
G01X2007400D02*
X1850000D01*
Y-1776500D01*
X2007400D01*
G01X1944400Y-1930000D02*
X1850000D01*
G01X0Y-2331400D02*
X12281000D01*
G01X0Y-1617700D02*
X12281000D01*
G01X0Y-904000D02*
X12281000D01*
G01X0Y0D02*
Y5000000D01*
X5000000D01*
Y0D01*
X0D01*
G01X1790900Y-1380200D02*
X1889300Y-1062700D01*
X1987700Y-1380200D01*
G01X1952300Y-1269100D02*
X1826300D01*
G01X2125500Y-1062700D02*
Y-1380200D01*
X2282900D01*
G01X2440400Y-1062700D02*
Y-1380200D01*
X2597800D01*
G01X3062300Y-1062700D02*
Y-1290200D01*
X3078000Y-1337900D01*
X3109500Y-1369600D01*
X3148900Y-1380200D01*
X3188300Y-1369600D01*
X3219800Y-1337900D01*
X3235500Y-1290200D01*
Y-1062700D01*
G01X3373300Y-1380200D02*
Y-1062700D01*
X3554300Y-1380200D01*
Y-1062700D01*
G01X3731500D02*
X3825900D01*
G01X3778700D02*
Y-1380200D01*
G01X3731500D02*
X3825900D01*
G01X4093600Y-1062700D02*
Y-1380200D01*
G01X4003100Y-1062700D02*
X4184100D01*
G01X4325800Y-1337900D02*
X4357300Y-1364300D01*
X4392800Y-1380200D01*
X4424200D01*
X4455700Y-1364300D01*
X4479400Y-1337900D01*
X4491200Y-1300800D01*
X4483300Y-1263800D01*
X4463600Y-1232000D01*
X4428200Y-1210900D01*
X4380900Y-1200300D01*
X4353400Y-1179100D01*
X4341600Y-1142100D01*
X4349500Y-1105000D01*
X4369100Y-1078600D01*
X4396700Y-1062700D01*
X4424200D01*
X4451800Y-1073300D01*
X4475400Y-1099700D01*
G01X4939900Y-1380200D02*
X5038300Y-1062700D01*
X5136700Y-1380200D01*
G01X5101300Y-1269100D02*
X4975300D01*
G01X5274500Y-1380200D02*
Y-1062700D01*
X5372900D01*
X5404400Y-1078600D01*
X5424100Y-1099700D01*
X5431900Y-1142100D01*
X5424100Y-1184400D01*
X5400400Y-1210900D01*
X5372900Y-1226700D01*
X5274500D01*
G01X5372900D02*
X5431900Y-1380200D01*
G01X5746800D02*
X5589400D01*
Y-1062700D01*
X5746800D01*
G01X5683800Y-1216200D02*
X5589400D01*
G01X6250700Y-1062700D02*
X6345100D01*
G01X6297900D02*
Y-1380200D01*
G01X6250700D02*
X6345100D01*
G01X6522300D02*
Y-1062700D01*
X6703300Y-1380200D01*
Y-1062700D01*
G01X7140200Y-1380200D02*
Y-1062700D01*
X7242600Y-1327300D01*
X7345000Y-1062700D01*
Y-1380200D01*
G01X7510300Y-1062700D02*
X7604700D01*
G01X7557500D02*
Y-1380200D01*
G01X7510300D02*
X7604700D01*
G01X7793700Y-1062700D02*
Y-1380200D01*
X7951100D01*
G01X8108600Y-1062700D02*
Y-1380200D01*
X8266000D01*
G01X8455000Y-1062700D02*
X8549400D01*
G01X8502200D02*
Y-1380200D01*
G01X8455000D02*
X8549400D01*
G01X8714700D02*
Y-1062700D01*
X8817100Y-1327300D01*
X8919500Y-1062700D01*
Y-1380200D01*
G01X9210700D02*
X9053300D01*
Y-1062700D01*
X9210700D01*
G01X9147700Y-1216200D02*
X9053300D01*
G01X9446900Y-1062700D02*
Y-1380200D01*
G01X9356400Y-1062700D02*
X9537400D01*
G01X9840500Y-1380200D02*
X9683100D01*
Y-1062700D01*
X9840500D01*
G01X9777500Y-1216200D02*
X9683100D01*
G01X9998000Y-1380200D02*
Y-1062700D01*
X10096400D01*
X10127900Y-1078600D01*
X10147600Y-1099700D01*
X10155400Y-1142100D01*
X10147600Y-1184400D01*
X10123900Y-1210900D01*
X10096400Y-1226700D01*
X9998000D01*
G01X10096400D02*
X10155400Y-1380200D01*
G01X10308900Y-1337900D02*
X10340400Y-1364300D01*
X10375900Y-1380200D01*
X10407300D01*
X10438800Y-1364300D01*
X10462500Y-1337900D01*
X10474300Y-1300800D01*
X10466400Y-1263800D01*
X10446700Y-1232000D01*
X10411300Y-1210900D01*
X10364000Y-1200300D01*
X10336500Y-1179100D01*
X10324700Y-1142100D01*
X10332600Y-1105000D01*
X10352200Y-1078600D01*
X10379800Y-1062700D01*
X10407300D01*
X10434900Y-1073300D01*
X10458500Y-1099700D01*
G01X2283000Y-1617700D02*
Y-4472500D01*
G01X2117600Y-730200D02*
Y-412700D01*
X2196300D01*
X2227800Y-428600D01*
X2251400Y-449700D01*
X2271100Y-481500D01*
X2286900Y-518500D01*
X2290800Y-571500D01*
X2286900Y-624400D01*
X2271100Y-661400D01*
X2251400Y-693200D01*
X2227800Y-714300D01*
X2196300Y-730200D01*
X2117600D01*
G01X2440400D02*
Y-412700D01*
X2538800D01*
X2570300Y-428600D01*
X2590000Y-449700D01*
X2597800Y-492100D01*
X2590000Y-534400D01*
X2566300Y-560900D01*
X2538800Y-576700D01*
X2440400D01*
G01X2538800D02*
X2597800Y-730200D01*
G01X2786800Y-412700D02*
X2881200D01*
G01X2834000D02*
Y-730200D01*
G01X2786800D02*
X2881200D01*
G01X3070200Y-412700D02*
Y-730200D01*
X3227600D01*
G01X3385100Y-412700D02*
Y-730200D01*
X3542500D01*
G01X4180200Y-439200D02*
X4156600Y-423300D01*
X4129000Y-412700D01*
X4097500D01*
X4062100Y-428600D01*
X4034600Y-455000D01*
X4014900Y-486800D01*
X3999100Y-539700D01*
X3995200Y-587300D01*
X4003100Y-635000D01*
X4014900Y-666700D01*
X4038500Y-698500D01*
X4066000Y-719600D01*
X4093600Y-730200D01*
X4121200D01*
X4148700Y-719600D01*
X4172300Y-703700D01*
X4192000Y-682600D01*
G01X4325800Y-730200D02*
Y-412700D01*
G01X4491200D02*
Y-730200D01*
G01Y-571500D02*
X4325800D01*
G01X4625000Y-730200D02*
X4723400Y-412700D01*
X4821800Y-730200D01*
G01X4786400Y-619100D02*
X4660400D01*
G01X4959600Y-730200D02*
Y-412700D01*
X5058000D01*
X5089500Y-428600D01*
X5109200Y-449700D01*
X5117000Y-492100D01*
X5109200Y-534400D01*
X5085500Y-560900D01*
X5058000Y-576700D01*
X4959600D01*
G01X5058000D02*
X5117000Y-730200D01*
G01X5353200Y-412700D02*
Y-730200D01*
G01X5262700Y-412700D02*
X5443700D01*
G01X5668100Y-740800D02*
X5660200Y-735500D01*
Y-724900D01*
X5668100Y-719600D01*
X5676000Y-724900D01*
Y-735500D01*
X5668100Y-740800D01*
G01Y-597900D02*
X5660200Y-592600D01*
Y-582000D01*
X5668100Y-576700D01*
X5676000Y-582000D01*
Y-592600D01*
X5668100Y-597900D01*
G01X6297900Y-412700D02*
Y-730200D01*
G01X6207400Y-412700D02*
X6388400D01*
G01X6612800Y-730200D02*
X6581300Y-724900D01*
X6553800Y-703700D01*
X6530100Y-672000D01*
X6514400Y-635000D01*
X6506500Y-592600D01*
Y-550300D01*
X6514400Y-507900D01*
X6530100Y-470900D01*
X6553800Y-439200D01*
X6581300Y-418000D01*
X6612800Y-412700D01*
X6644300Y-418000D01*
X6671800Y-439200D01*
X6695500Y-470900D01*
X6711200Y-507900D01*
X6719100Y-550300D01*
Y-592600D01*
X6711200Y-635000D01*
X6695500Y-672000D01*
X6671800Y-703700D01*
X6644300Y-724900D01*
X6612800Y-730200D01*
G01X6849000D02*
Y-412700D01*
X6943400D01*
X6974900Y-428600D01*
X6998600Y-465600D01*
X7006400Y-507900D01*
X6998600Y-550300D01*
X6978900Y-582000D01*
X6943400Y-597900D01*
X6849000D01*
G01X7557500Y-412700D02*
Y-730200D01*
G01X7502400Y-518500D02*
X7612600D01*
G01X7872400Y-730200D02*
X7848800Y-724900D01*
X7825200Y-703700D01*
X7809400Y-666700D01*
X7801500Y-624400D01*
X7809400Y-582000D01*
X7825200Y-545000D01*
X7848800Y-523800D01*
X7872400Y-518500D01*
X7896000Y-523800D01*
X7919600Y-545000D01*
X7935400Y-582000D01*
X7939300Y-624400D01*
X7935400Y-666700D01*
X7919600Y-703700D01*
X7896000Y-724900D01*
X7872400Y-730200D01*
G01X8533700Y-560900D02*
X8549400Y-545000D01*
X8561200Y-518500D01*
X8569100Y-481500D01*
X8561200Y-449700D01*
X8545500Y-428600D01*
X8517900Y-412700D01*
X8411700D01*
Y-730200D01*
X8541600D01*
X8569100Y-709000D01*
X8584900Y-677300D01*
X8592700Y-640200D01*
X8584900Y-603200D01*
X8561200Y-571500D01*
X8533700Y-560900D01*
X8411700D01*
G01X8817100Y-730200D02*
X8785600Y-724900D01*
X8758100Y-703700D01*
X8734400Y-672000D01*
X8718700Y-635000D01*
X8710800Y-592600D01*
Y-550300D01*
X8718700Y-507900D01*
X8734400Y-470900D01*
X8758100Y-439200D01*
X8785600Y-418000D01*
X8817100Y-412700D01*
X8848600Y-418000D01*
X8876100Y-439200D01*
X8899800Y-470900D01*
X8915500Y-507900D01*
X8923400Y-550300D01*
Y-592600D01*
X8915500Y-635000D01*
X8899800Y-672000D01*
X8876100Y-703700D01*
X8848600Y-724900D01*
X8817100Y-730200D01*
G01X9132000Y-412700D02*
Y-730200D01*
G01X9041500Y-412700D02*
X9222500D01*
G01X9446900D02*
Y-730200D01*
G01X9356400Y-412700D02*
X9537400D01*
G01X9761800Y-730200D02*
X9730300Y-724900D01*
X9702800Y-703700D01*
X9679100Y-672000D01*
X9663400Y-635000D01*
X9655500Y-592600D01*
Y-550300D01*
X9663400Y-507900D01*
X9679100Y-470900D01*
X9702800Y-439200D01*
X9730300Y-418000D01*
X9761800Y-412700D01*
X9793300Y-418000D01*
X9820800Y-439200D01*
X9844500Y-470900D01*
X9860200Y-507900D01*
X9868100Y-550300D01*
Y-592600D01*
X9860200Y-635000D01*
X9844500Y-672000D01*
X9820800Y-703700D01*
X9793300Y-724900D01*
X9761800Y-730200D01*
G01X9974300D02*
Y-412700D01*
X10076700Y-677300D01*
X10179100Y-412700D01*
Y-730200D01*
G01X4054300Y-3560700D02*
Y-3243200D01*
X4007100Y-3306700D01*
G01Y-3560700D02*
X4101500D01*
G01X4369200Y-3571300D02*
X4361300Y-3566000D01*
Y-3555400D01*
X4369200Y-3550100D01*
X4377100Y-3555400D01*
Y-3566000D01*
X4369200Y-3571300D01*
G01X4684100Y-3243200D02*
X4652600Y-3253800D01*
X4629000Y-3280200D01*
X4613200Y-3312000D01*
X4601400Y-3354300D01*
X4597500Y-3402000D01*
X4601400Y-3449600D01*
X4613200Y-3491900D01*
X4629000Y-3523700D01*
X4652600Y-3550100D01*
X4684100Y-3560700D01*
X4715600Y-3550100D01*
X4739200Y-3523700D01*
X4755000Y-3491900D01*
X4766800Y-3449600D01*
X4770700Y-3402000D01*
X4766800Y-3354300D01*
X4755000Y-3312000D01*
X4739200Y-3280200D01*
X4715600Y-3253800D01*
X4684100Y-3243200D01*
G01X4924200Y-3428400D02*
X4951800Y-3391400D01*
X4975400Y-3370200D01*
X5006900Y-3359600D01*
X5034400Y-3370200D01*
X5054100Y-3391400D01*
X5069900Y-3423100D01*
X5073800Y-3460200D01*
X5069900Y-3491900D01*
X5054100Y-3523700D01*
X5030500Y-3550100D01*
X5002900Y-3560700D01*
X4971400Y-3550100D01*
X4943900Y-3518400D01*
X4928100Y-3470700D01*
X4924200Y-3417800D01*
X4932100Y-3349000D01*
X4943900Y-3312000D01*
X4963600Y-3275000D01*
X4991100Y-3248500D01*
X5018700Y-3243200D01*
X5046200Y-3253800D01*
X5065900Y-3280200D01*
G01X5306000Y-3560700D02*
X5313900Y-3491900D01*
X5325700Y-3433700D01*
X5341500Y-3380800D01*
X5361100Y-3322600D01*
X5392600Y-3243200D01*
X5235200D01*
G01X4054300Y-2529500D02*
X4022800Y-2540100D01*
X3999200Y-2566500D01*
X3983400Y-2598300D01*
X3971600Y-2640600D01*
X3967700Y-2688300D01*
X3971600Y-2735900D01*
X3983400Y-2778200D01*
X3999200Y-2810000D01*
X4022800Y-2836400D01*
X4054300Y-2847000D01*
X4085800Y-2836400D01*
X4109400Y-2810000D01*
X4125200Y-2778200D01*
X4137000Y-2735900D01*
X4140900Y-2688300D01*
X4137000Y-2640600D01*
X4125200Y-2598300D01*
X4109400Y-2566500D01*
X4085800Y-2540100D01*
X4054300Y-2529500D01*
G01X4369200Y-2857600D02*
X4361300Y-2852300D01*
Y-2841700D01*
X4369200Y-2836400D01*
X4377100Y-2841700D01*
Y-2852300D01*
X4369200Y-2857600D01*
G01X4617200Y-2810000D02*
X4644700Y-2836400D01*
X4676200Y-2847000D01*
X4707700Y-2836400D01*
X4735300Y-2804700D01*
X4755000Y-2757000D01*
X4762800Y-2709400D01*
Y-2651200D01*
X4755000Y-2603600D01*
X4735300Y-2561300D01*
X4711700Y-2540100D01*
X4684100Y-2529500D01*
X4652600Y-2540100D01*
X4629000Y-2561300D01*
X4613200Y-2593000D01*
X4605400Y-2635300D01*
X4613200Y-2672400D01*
X4632900Y-2709400D01*
X4656500Y-2730600D01*
X4684100Y-2735900D01*
X4715600Y-2725300D01*
X4739200Y-2698800D01*
X4762800Y-2651200D01*
G01X4999000Y-2847000D02*
Y-2529500D01*
X4951800Y-2593000D01*
G01Y-2847000D02*
X5046200D01*
G01X5361100D02*
Y-2529500D01*
X5215500Y-2757000D01*
X5412300D01*
G01X4129000Y-2051700D02*
X4160500Y-2078100D01*
X4196000Y-2094000D01*
X4227400D01*
X4258900Y-2078100D01*
X4282600Y-2051700D01*
X4294400Y-2014600D01*
X4286500Y-1977600D01*
X4266800Y-1945800D01*
X4231400Y-1924700D01*
X4184100Y-1914100D01*
X4156600Y-1892900D01*
X4144800Y-1855900D01*
X4152700Y-1818800D01*
X4172300Y-1792400D01*
X4199900Y-1776500D01*
X4227400D01*
X4255000Y-1787100D01*
X4278600Y-1813500D01*
G01X4479400Y-1776500D02*
X4573800D01*
G01X4526600D02*
Y-2094000D01*
G01X4479400D02*
X4573800D01*
G01X4766700Y-1776500D02*
X4916300D01*
X4766700Y-2094000D01*
X4916300D01*
G01X5235100D02*
X5077700D01*
Y-1776500D01*
X5235100D01*
G01X5172100Y-1930000D02*
X5077700D01*
G01X4282600Y-4210900D02*
X4306200Y-4247900D01*
X4337700Y-4269100D01*
X4373100Y-4274400D01*
X4404600Y-4269100D01*
X4436100Y-4242700D01*
X4455800Y-4210900D01*
X4459700Y-4179200D01*
X4451900Y-4142100D01*
X4424300Y-4115700D01*
X4396800Y-4105100D01*
X4361300D01*
G01X4396800D02*
X4420400Y-4089200D01*
X4440100Y-4062700D01*
X4447900Y-4031000D01*
X4440100Y-3999200D01*
X4420400Y-3972800D01*
X4384900Y-3956900D01*
X4349500Y-3962200D01*
X4314100Y-3983400D01*
G01X4684100Y-4285000D02*
X4676200Y-4279700D01*
Y-4269100D01*
X4684100Y-4263800D01*
X4692000Y-4269100D01*
Y-4279700D01*
X4684100Y-4285000D01*
G01X4999000Y-3956900D02*
X4967500Y-3967500D01*
X4943900Y-3993900D01*
X4928100Y-4025700D01*
X4916300Y-4068000D01*
X4912400Y-4115700D01*
X4916300Y-4163300D01*
X4928100Y-4205600D01*
X4943900Y-4237400D01*
X4967500Y-4263800D01*
X4999000Y-4274400D01*
X5030500Y-4263800D01*
X5054100Y-4237400D01*
X5069900Y-4205600D01*
X5081700Y-4163300D01*
X5085600Y-4115700D01*
X5081700Y-4068000D01*
X5069900Y-4025700D01*
X5054100Y-3993900D01*
X5030500Y-3967500D01*
X4999000Y-3956900D01*
G01X7191400Y-4274400D02*
Y-3956900D01*
X7372400Y-4274400D01*
Y-3956900D01*
G01X7596800Y-4274400D02*
X7565300Y-4269100D01*
X7537800Y-4247900D01*
X7514100Y-4216200D01*
X7498400Y-4179200D01*
X7490500Y-4136800D01*
Y-4094500D01*
X7498400Y-4052100D01*
X7514100Y-4015100D01*
X7537800Y-3983400D01*
X7565300Y-3962200D01*
X7596800Y-3956900D01*
X7628300Y-3962200D01*
X7655800Y-3983400D01*
X7679500Y-4015100D01*
X7695200Y-4052100D01*
X7703100Y-4094500D01*
Y-4136800D01*
X7695200Y-4179200D01*
X7679500Y-4216200D01*
X7655800Y-4247900D01*
X7628300Y-4269100D01*
X7596800Y-4274400D01*
G01X7821200D02*
Y-3956900D01*
X8002200Y-4274400D01*
Y-3956900D01*
G01X8175400Y-4168600D02*
X8277800D01*
G01X8462800Y-4274400D02*
Y-3956900D01*
X8557200D01*
X8588700Y-3972800D01*
X8612400Y-4009800D01*
X8620200Y-4052100D01*
X8612400Y-4094500D01*
X8592700Y-4126200D01*
X8557200Y-4142100D01*
X8462800D01*
G01X8777700Y-3956900D02*
Y-4274400D01*
X8935100D01*
G01X9072900D02*
X9171300Y-3956900D01*
X9269700Y-4274400D01*
G01X9234300Y-4163300D02*
X9108300D01*
G01X9486200Y-3956900D02*
Y-4274400D01*
G01X9395700Y-3956900D02*
X9576700D01*
G01X9879800Y-4274400D02*
X9722400D01*
Y-3956900D01*
X9879800D01*
G01X9816800Y-4110400D02*
X9722400D01*
G01X10029400Y-4274400D02*
Y-3956900D01*
X10108100D01*
X10139600Y-3972800D01*
X10163200Y-3993900D01*
X10182900Y-4025700D01*
X10198700Y-4062700D01*
X10202600Y-4115700D01*
X10198700Y-4168600D01*
X10182900Y-4205600D01*
X10163200Y-4237400D01*
X10139600Y-4258500D01*
X10108100Y-4274400D01*
X10029400D01*
G01X7085200Y-1617700D02*
Y-4472500D01*
G01X7833000Y-3560700D02*
Y-3243200D01*
X7927400D01*
X7958900Y-3259100D01*
X7982600Y-3296100D01*
X7990400Y-3338400D01*
X7982600Y-3380800D01*
X7962900Y-3412500D01*
X7927400Y-3428400D01*
X7833000D01*
G01X8147900Y-3243200D02*
Y-3560700D01*
X8305300D01*
G01X8443100D02*
X8541500Y-3243200D01*
X8639900Y-3560700D01*
G01X8604500Y-3449600D02*
X8478500D01*
G01X8856400Y-3243200D02*
Y-3560700D01*
G01X8765900Y-3243200D02*
X8946900D01*
G01X9250000Y-3560700D02*
X9092600D01*
Y-3243200D01*
X9250000D01*
G01X9187000Y-3396700D02*
X9092600D01*
G01X9399600Y-3560700D02*
Y-3243200D01*
X9478300D01*
X9509800Y-3259100D01*
X9533400Y-3280200D01*
X9553100Y-3312000D01*
X9568900Y-3349000D01*
X9572800Y-3402000D01*
X9568900Y-3454900D01*
X9553100Y-3491900D01*
X9533400Y-3523700D01*
X9509800Y-3544800D01*
X9478300Y-3560700D01*
X9399600D01*
G01X7833000Y-2847000D02*
Y-2529500D01*
X7927400D01*
X7958900Y-2545400D01*
X7982600Y-2582400D01*
X7990400Y-2624700D01*
X7982600Y-2667100D01*
X7962900Y-2698800D01*
X7927400Y-2714700D01*
X7833000D01*
G01X8147900Y-2529500D02*
Y-2847000D01*
X8305300D01*
G01X8443100D02*
X8541500Y-2529500D01*
X8639900Y-2847000D01*
G01X8604500Y-2735900D02*
X8478500D01*
G01X8856400Y-2529500D02*
Y-2847000D01*
G01X8765900Y-2529500D02*
X8946900D01*
G01X9250000Y-2847000D02*
X9092600D01*
Y-2529500D01*
X9250000D01*
G01X9187000Y-2683000D02*
X9092600D01*
G01X9399600Y-2847000D02*
Y-2529500D01*
X9478300D01*
X9509800Y-2545400D01*
X9533400Y-2566500D01*
X9553100Y-2598300D01*
X9568900Y-2635300D01*
X9572800Y-2688300D01*
X9568900Y-2741200D01*
X9553100Y-2778200D01*
X9533400Y-2810000D01*
X9509800Y-2831100D01*
X9478300Y-2847000D01*
X9399600D01*
G01X7833000Y-2094000D02*
Y-1776500D01*
X7927400D01*
X7958900Y-1792400D01*
X7982600Y-1829400D01*
X7990400Y-1871700D01*
X7982600Y-1914100D01*
X7962900Y-1945800D01*
X7927400Y-1961700D01*
X7833000D01*
G01X8147900Y-1776500D02*
Y-2094000D01*
X8305300D01*
G01X8443100D02*
X8541500Y-1776500D01*
X8639900Y-2094000D01*
G01X8604500Y-1982900D02*
X8478500D01*
G01X8856400Y-1776500D02*
Y-2094000D01*
G01X8765900Y-1776500D02*
X8946900D01*
G01X9250000Y-2094000D02*
X9092600D01*
Y-1776500D01*
X9250000D01*
G01X9187000Y-1930000D02*
X9092600D01*
G01X9399600Y-2094000D02*
Y-1776500D01*
X9478300D01*
X9509800Y-1792400D01*
X9533400Y-1813500D01*
X9553100Y-1845300D01*
X9568900Y-1882300D01*
X9572800Y-1935300D01*
X9568900Y-1988200D01*
X9553100Y-2025200D01*
X9533400Y-2057000D01*
X9509800Y-2078100D01*
X9478300Y-2094000D01*
X9399600D01*
G01X10312900Y-1617700D02*
Y-4472500D01*
G01X10982100Y-2094000D02*
X10950600Y-2088700D01*
X10923100Y-2067500D01*
X10899400Y-2035800D01*
X10883700Y-1998800D01*
X10875800Y-1956400D01*
Y-1914100D01*
X10883700Y-1871700D01*
X10899400Y-1834700D01*
X10923100Y-1803000D01*
X10950600Y-1781800D01*
X10982100Y-1776500D01*
X11013600Y-1781800D01*
X11041100Y-1803000D01*
X11064800Y-1834700D01*
X11080500Y-1871700D01*
X11088400Y-1914100D01*
Y-1956400D01*
X11080500Y-1998800D01*
X11064800Y-2035800D01*
X11041100Y-2067500D01*
X11013600Y-2088700D01*
X10982100Y-2094000D01*
G01X11013600Y-2009300D02*
X11060800Y-2094000D01*
G01X11297000Y-1776500D02*
Y-2094000D01*
G01X11206500Y-1776500D02*
X11387500D01*
G01X11611900Y-2094000D02*
Y-1951100D01*
X11533200Y-1776500D01*
G01X11690600D02*
X11611900Y-1951100D01*
G01X11344200Y-4274400D02*
Y-3956900D01*
X11198600Y-4184400D01*
X11395400D01*
G01X11222200Y-3428400D02*
X11249800Y-3391400D01*
X11273400Y-3370200D01*
X11304900Y-3359600D01*
X11332400Y-3370200D01*
X11352100Y-3391400D01*
X11367900Y-3423100D01*
X11371800Y-3460200D01*
X11367900Y-3491900D01*
X11352100Y-3523700D01*
X11328500Y-3550100D01*
X11300900Y-3560700D01*
X11269400Y-3550100D01*
X11241900Y-3518400D01*
X11226100Y-3470700D01*
X11222200Y-3417800D01*
X11230100Y-3349000D01*
X11241900Y-3312000D01*
X11261600Y-3275000D01*
X11289100Y-3248500D01*
X11316700Y-3243200D01*
X11344200Y-3253800D01*
X11363900Y-3280200D01*
G01X11139500Y-2847000D02*
Y-2529500D01*
X11092300Y-2593000D01*
G01Y-2847000D02*
X11186700D01*
G01X11387500Y-2810000D02*
X11415000Y-2836400D01*
X11446500Y-2847000D01*
X11478000Y-2836400D01*
X11505600Y-2804700D01*
X11525300Y-2757000D01*
X11533100Y-2709400D01*
Y-2651200D01*
X11525300Y-2603600D01*
X11505600Y-2561300D01*
X11482000Y-2540100D01*
X11454400Y-2529500D01*
X11422900Y-2540100D01*
X11399300Y-2561300D01*
X11383500Y-2593000D01*
X11375700Y-2635300D01*
X11383500Y-2672400D01*
X11403200Y-2709400D01*
X11426800Y-2730600D01*
X11454400Y-2735900D01*
X11485900Y-2725300D01*
X11509500Y-2698800D01*
X11533100Y-2651200D01*
M02*
