G04 ================== begin FILE IDENTIFICATION RECORD ==================*
G04 Layout Name:  C:/21-05-10/DCPOWER2303/allegro/DCPOWER2303.brd*
G04 Film Name:    DD*
G04 File Format:  Gerber RS274X*
G04 File Origin:  Cadence Allegro 16.6-P004*
G04 Origin Date:  Mon May 17 10:42:16 2021*
G04 *
G04 Layer:  MANUFACTURING/NCDRILL_LEGEND*
G04 Layer:  MANUFACTURING/NCDRILL_FIGURE*
G04 Layer:  MANUFACTURING/NCLEGEND-1-2*
G04 Layer:  BOARD GEOMETRY/OUTLINE*
G04 *
G04 Offset:    (0.0000 0.0000)*
G04 Mirror:    No*
G04 Mode:      Positive*
G04 Rotation:  0*
G04 FullContactRelief:  No*
G04 UndefLineWidth:     0.2000*
G04 ================== end FILE IDENTIFICATION RECORD ====================*
%FSLAX35Y35*MOMM*%
%IR0*IPPOS*OFA0.00000B0.00000*MIA0B0*SFA1.00000B1.00000*%
%AMMACRO11*
1,1,.2,.4572,.4572*
20,1,.2,.4572,.4572,.4572,-.4572,0.0*
1,1,.2,.4572,-.4572*
20,1,.2,.4572,-.4572,-.4572,-.4572,0.0*
1,1,.2,-.4572,-.4572*
20,1,.2,-.4572,-.4572,-.4572,.4572,0.0*
1,1,.2,-.4572,.4572*
20,1,.2,-.4572,.4572,.4572,.4572,0.0*
1,1,.2,.4572,.4572*
%
%ADD11MACRO11*%
%AMMACRO10*
1,1,.2,1.5,0.0*
20,1,.2,1.5,0.0,.75,1.299038,0.0*
1,1,.2,.75,1.299038*
20,1,.2,.75,1.299038,-.75,1.299038,0.0*
1,1,.2,-.75,1.299038*
20,1,.2,-.75,1.299038,-1.5,0.0,0.0*
1,1,.2,-1.5,0.0*
20,1,.2,-1.5,0.0,-.75,-1.299038,0.0*
1,1,.2,-.75,-1.299038*
20,1,.2,-.75,-1.299038,.75,-1.299038,0.0*
1,1,.2,.75,-1.299038*
20,1,.2,.75,-1.299038,1.5,0.0,0.0*
1,1,.2,1.5,0.0*
%
%ADD10MACRO10*%
%AMMACRO12*
1,1,.2,.44995,0.0*
20,1,.2,.44995,0.0,-.44995,0.0,0.0*
1,1,.2,-.44995,0.0*
1,1,.2,0.0,.44995*
20,1,.2,0.0,.44995,0.0,-.44995,0.0*
1,1,.2,0.0,-.44995*
%
%ADD12MACRO12*%
%ADD13C,.2*%
G75*
%LPD*%
G75*
G54D10*
X500000Y500000D03*
Y2500000D03*
X1141730Y-3961830D03*
X5500000Y500000D03*
Y2500000D03*
G54D11*
X508000Y1524000D03*
Y1778000D03*
X1141730Y-3248090D03*
X1295400Y762000D03*
Y1778000D03*
Y1270000D03*
Y2286000D03*
X2286000Y762000D03*
Y1778000D03*
Y1270000D03*
Y2286000D03*
X3302000Y1244600D03*
Y1498600D03*
X4064000Y736600D03*
Y1498600D03*
X4826000Y762000D03*
Y1524000D03*
X5334000Y1270000D03*
Y1524000D03*
G54D12*
X1141730Y-2534350D03*
X3302000Y2286000D03*
X3810000D03*
X3556000D03*
G54D13*
G01X0Y-4318700D02*
Y-100000D01*
X12283440D01*
Y-4318700D01*
X0D01*
G01Y-3604960D02*
X12283440D01*
G01X0Y-2891220D02*
X12283440D01*
G01X279520Y-1939990D02*
Y-1622490D01*
X429140D01*
G01X374010Y-1775940D02*
X279520D01*
G01X622050Y-1622490D02*
X716530D01*
G01X669290D02*
Y-1939990D01*
G01X622050D02*
X716530D01*
G01X1007870Y-1781240D02*
X1086620D01*
Y-1876490D01*
X1062990Y-1908250D01*
X1035430Y-1929410D01*
X996060Y-1939990D01*
X956690Y-1929410D01*
X929130Y-1908250D01*
X905510Y-1876490D01*
X889760Y-1839450D01*
X881880Y-1797120D01*
Y-1760070D01*
X889760Y-1728330D01*
X905510Y-1691280D01*
X929130Y-1659530D01*
X952750Y-1638370D01*
X984250Y-1622490D01*
X1011810D01*
X1043300Y-1633070D01*
X1066930Y-1654240D01*
G01X1212600Y-1622490D02*
Y-1850030D01*
X1228340Y-1897670D01*
X1259840Y-1929410D01*
X1299210Y-1939990D01*
X1338580Y-1929410D01*
X1370080Y-1897670D01*
X1385820Y-1850030D01*
Y-1622490D01*
G01X1535430Y-1939990D02*
Y-1622490D01*
X1633850D01*
X1665350Y-1638370D01*
X1685040Y-1659530D01*
X1692910Y-1701870D01*
X1685040Y-1744200D01*
X1661410Y-1770650D01*
X1633850Y-1786540D01*
X1535430D01*
G01X1633850D02*
X1692910Y-1939990D01*
G01X2007870D02*
X1850390D01*
Y-1622490D01*
X2007870D01*
G01X1944880Y-1775940D02*
X1850390D01*
G01X0Y-2177480D02*
X12283440D01*
G01X0Y-1463740D02*
X12283440D01*
G01X0Y-750000D02*
X12283440D01*
G01X0Y0D02*
Y3000000D01*
X6000000D01*
Y0D01*
X0D01*
G01X1791330Y-1226250D02*
X1889760Y-908750D01*
X1988190Y-1226250D01*
G01X1952750Y-1115130D02*
X1826760D01*
G01X2125980Y-908750D02*
Y-1226250D01*
X2283460D01*
G01X2440940Y-908750D02*
Y-1226250D01*
X2598420D01*
G01X3062990Y-908750D02*
Y-1136290D01*
X3078730Y-1183930D01*
X3110230Y-1215670D01*
X3149600Y-1226250D01*
X3188970Y-1215670D01*
X3220470Y-1183930D01*
X3236210Y-1136290D01*
Y-908750D01*
G01X3374010Y-1226250D02*
Y-908750D01*
X3555110Y-1226250D01*
Y-908750D01*
G01X3732280D02*
X3826760D01*
G01X3779520D02*
Y-1226250D01*
G01X3732280D02*
X3826760D01*
G01X4094480Y-908750D02*
Y-1226250D01*
G01X4003930Y-908750D02*
X4185030D01*
G01X4326760Y-1183930D02*
X4358260Y-1210380D01*
X4393690Y-1226250D01*
X4425190D01*
X4456680Y-1210380D01*
X4480310Y-1183930D01*
X4492120Y-1146870D01*
X4484250Y-1109840D01*
X4464560Y-1078090D01*
X4429120Y-1056910D01*
X4381880Y-1046330D01*
X4354320Y-1025170D01*
X4342510Y-988130D01*
X4350390Y-951080D01*
X4370070Y-924630D01*
X4397630Y-908750D01*
X4425190D01*
X4452750Y-919330D01*
X4476370Y-945790D01*
G01X4940930Y-1226250D02*
X5039360Y-908750D01*
X5137790Y-1226250D01*
G01X5102350Y-1115130D02*
X4976360D01*
G01X5275580Y-1226250D02*
Y-908750D01*
X5374000D01*
X5405500Y-924630D01*
X5425190Y-945790D01*
X5433060Y-988130D01*
X5425190Y-1030460D01*
X5401560Y-1056910D01*
X5374000Y-1072800D01*
X5275580D01*
G01X5374000D02*
X5433060Y-1226250D01*
G01X5748020D02*
X5590540D01*
Y-908750D01*
X5748020D01*
G01X5685030Y-1062200D02*
X5590540D01*
G01X6251960Y-908750D02*
X6346440D01*
G01X6299200D02*
Y-1226250D01*
G01X6251960D02*
X6346440D01*
G01X6523610D02*
Y-908750D01*
X6704710Y-1226250D01*
Y-908750D01*
G01X7141710Y-1226250D02*
Y-908750D01*
X7244080Y-1173330D01*
X7346450Y-908750D01*
Y-1226250D01*
G01X7511800Y-908750D02*
X7606280D01*
G01X7559040D02*
Y-1226250D01*
G01X7511800D02*
X7606280D01*
G01X7795260Y-908750D02*
Y-1226250D01*
X7952740D01*
G01X8110220Y-908750D02*
Y-1226250D01*
X8267700D01*
G01X8456680Y-908750D02*
X8551160D01*
G01X8503920D02*
Y-1226250D01*
G01X8456680D02*
X8551160D01*
G01X8716510D02*
Y-908750D01*
X8818880Y-1173330D01*
X8921250Y-908750D01*
Y-1226250D01*
G01X9212580D02*
X9055100D01*
Y-908750D01*
X9212580D01*
G01X9149590Y-1062200D02*
X9055100D01*
G01X9448800Y-908750D02*
Y-1226250D01*
G01X9358250Y-908750D02*
X9539350D01*
G01X9842500Y-1226250D02*
X9685020D01*
Y-908750D01*
X9842500D01*
G01X9779510Y-1062200D02*
X9685020D01*
G01X9999980Y-1226250D02*
Y-908750D01*
X10098400D01*
X10129900Y-924630D01*
X10149590Y-945790D01*
X10157460Y-988130D01*
X10149590Y-1030460D01*
X10125960Y-1056910D01*
X10098400Y-1072800D01*
X9999980D01*
G01X10098400D02*
X10157460Y-1226250D01*
G01X10311000Y-1183930D02*
X10342500Y-1210380D01*
X10377930Y-1226250D01*
X10409430D01*
X10440920Y-1210380D01*
X10464550Y-1183930D01*
X10476360Y-1146870D01*
X10468490Y-1109840D01*
X10448800Y-1078090D01*
X10413360Y-1056910D01*
X10366120Y-1046330D01*
X10338560Y-1025170D01*
X10326750Y-988130D01*
X10334630Y-951080D01*
X10354310Y-924630D01*
X10381870Y-908750D01*
X10409430D01*
X10436990Y-919330D01*
X10460610Y-945790D01*
G01X2283460Y-1463740D02*
Y-4318700D01*
G01X2118110Y-576250D02*
Y-258750D01*
X2196840D01*
X2228340Y-274630D01*
X2251960Y-295790D01*
X2271650Y-327540D01*
X2287400Y-364590D01*
X2291330Y-417500D01*
X2287400Y-470420D01*
X2271650Y-507460D01*
X2251960Y-539220D01*
X2228340Y-560380D01*
X2196840Y-576250D01*
X2118110D01*
G01X2440940D02*
Y-258750D01*
X2539360D01*
X2570860Y-274630D01*
X2590550Y-295790D01*
X2598420Y-338130D01*
X2590550Y-380460D01*
X2566920Y-406910D01*
X2539360Y-422800D01*
X2440940D01*
G01X2539360D02*
X2598420Y-576250D01*
G01X2787400Y-258750D02*
X2881880D01*
G01X2834640D02*
Y-576250D01*
G01X2787400D02*
X2881880D01*
G01X3070860Y-258750D02*
Y-576250D01*
X3228340D01*
G01X3385820Y-258750D02*
Y-576250D01*
X3543300D01*
G01X4181090Y-285210D02*
X4157470Y-269330D01*
X4129920Y-258750D01*
X4098420D01*
X4062980Y-274630D01*
X4035430Y-301080D01*
X4015740Y-332840D01*
X3999990Y-385750D01*
X3996050Y-433380D01*
X4003930Y-481000D01*
X4015740Y-512750D01*
X4039360Y-544510D01*
X4066920Y-565670D01*
X4094480Y-576250D01*
X4122040D01*
X4149600Y-565670D01*
X4173220Y-549800D01*
X4192910Y-528640D01*
G01X4326760Y-576250D02*
Y-258750D01*
G01X4492120D02*
Y-576250D01*
G01Y-417500D02*
X4326760D01*
G01X4625970Y-576250D02*
X4724400Y-258750D01*
X4822830Y-576250D01*
G01X4787390Y-465130D02*
X4661400D01*
G01X4960620Y-576250D02*
Y-258750D01*
X5059040D01*
X5090540Y-274630D01*
X5110230Y-295790D01*
X5118100Y-338130D01*
X5110230Y-380460D01*
X5086600Y-406910D01*
X5059040Y-422800D01*
X4960620D01*
G01X5059040D02*
X5118100Y-576250D01*
G01X5354320Y-258750D02*
Y-576250D01*
G01X5263770Y-258750D02*
X5444870D01*
G01X5669280Y-586830D02*
X5661400Y-581540D01*
Y-570960D01*
X5669280Y-565670D01*
X5677160Y-570960D01*
Y-581540D01*
X5669280Y-586830D01*
G01Y-443970D02*
X5661400Y-438670D01*
Y-428090D01*
X5669280Y-422800D01*
X5677160Y-428090D01*
Y-438670D01*
X5669280Y-443970D01*
G01X6299200Y-258750D02*
Y-576250D01*
G01X6208650Y-258750D02*
X6389750D01*
G01X6614160Y-576250D02*
X6582660Y-570960D01*
X6555110Y-549800D01*
X6531480Y-518040D01*
X6515730Y-481000D01*
X6507860Y-438670D01*
Y-396330D01*
X6515730Y-354000D01*
X6531480Y-316960D01*
X6555110Y-285210D01*
X6582660Y-264040D01*
X6614160Y-258750D01*
X6645650Y-264040D01*
X6673210Y-285210D01*
X6696840Y-316960D01*
X6712590Y-354000D01*
X6720460Y-396330D01*
Y-438670D01*
X6712590Y-481000D01*
X6696840Y-518040D01*
X6673210Y-549800D01*
X6645650Y-570960D01*
X6614160Y-576250D01*
G01X6850380D02*
Y-258750D01*
X6944870D01*
X6976360Y-274630D01*
X6999990Y-311670D01*
X7007860Y-354000D01*
X6999990Y-396330D01*
X6980300Y-428090D01*
X6944870Y-443970D01*
X6850380D01*
G01X7559040Y-258750D02*
Y-576250D01*
G01X7503920Y-364590D02*
X7614160D01*
G01X7874000Y-576250D02*
X7850380Y-570960D01*
X7826760Y-549800D01*
X7811000Y-512750D01*
X7803130Y-470420D01*
X7811000Y-428090D01*
X7826760Y-391040D01*
X7850380Y-369880D01*
X7874000Y-364590D01*
X7897620Y-369880D01*
X7921240Y-391040D01*
X7936990Y-428090D01*
X7940930Y-470420D01*
X7936990Y-512750D01*
X7921240Y-549800D01*
X7897620Y-570960D01*
X7874000Y-576250D01*
G01X8535410Y-406910D02*
X8551160Y-391040D01*
X8562970Y-364590D01*
X8570850Y-327540D01*
X8562970Y-295790D01*
X8547230Y-274630D01*
X8519670Y-258750D01*
X8413370D01*
Y-576250D01*
X8543290D01*
X8570850Y-555090D01*
X8586600Y-523330D01*
X8594470Y-486290D01*
X8586600Y-449260D01*
X8562970Y-417500D01*
X8535410Y-406910D01*
X8413370D01*
G01X8818880Y-576250D02*
X8787380Y-570960D01*
X8759830Y-549800D01*
X8736200Y-518040D01*
X8720450Y-481000D01*
X8712580Y-438670D01*
Y-396330D01*
X8720450Y-354000D01*
X8736200Y-316960D01*
X8759830Y-285210D01*
X8787380Y-264040D01*
X8818880Y-258750D01*
X8850370Y-264040D01*
X8877930Y-285210D01*
X8901560Y-316960D01*
X8917310Y-354000D01*
X8925180Y-396330D01*
Y-438670D01*
X8917310Y-481000D01*
X8901560Y-518040D01*
X8877930Y-549800D01*
X8850370Y-570960D01*
X8818880Y-576250D01*
G01X9133840Y-258750D02*
Y-576250D01*
G01X9043290Y-258750D02*
X9224390D01*
G01X9448800D02*
Y-576250D01*
G01X9358250Y-258750D02*
X9539350D01*
G01X9763760Y-576250D02*
X9732260Y-570960D01*
X9704710Y-549800D01*
X9681080Y-518040D01*
X9665330Y-481000D01*
X9657460Y-438670D01*
Y-396330D01*
X9665330Y-354000D01*
X9681080Y-316960D01*
X9704710Y-285210D01*
X9732260Y-264040D01*
X9763760Y-258750D01*
X9795250Y-264040D01*
X9822810Y-285210D01*
X9846440Y-316960D01*
X9862190Y-354000D01*
X9870060Y-396330D01*
Y-438670D01*
X9862190Y-481000D01*
X9846440Y-518040D01*
X9822810Y-549800D01*
X9795250Y-570960D01*
X9763760Y-576250D01*
G01X9976350D02*
Y-258750D01*
X10078720Y-523330D01*
X10181090Y-258750D01*
Y-576250D01*
G01X3897630Y-3089340D02*
X3866130Y-3099920D01*
X3842510Y-3126380D01*
X3826760Y-3158130D01*
X3814950Y-3200470D01*
X3811020Y-3248090D01*
X3814950Y-3295720D01*
X3826760Y-3338050D01*
X3842510Y-3369810D01*
X3866130Y-3396260D01*
X3897630Y-3406840D01*
X3929120Y-3396260D01*
X3952750Y-3369810D01*
X3968500Y-3338050D01*
X3980310Y-3295720D01*
X3984240Y-3248090D01*
X3980310Y-3200470D01*
X3968500Y-3158130D01*
X3952750Y-3126380D01*
X3929120Y-3099920D01*
X3897630Y-3089340D01*
G01X4212590Y-3417420D02*
X4204710Y-3412130D01*
Y-3401550D01*
X4212590Y-3396260D01*
X4220470Y-3401550D01*
Y-3412130D01*
X4212590Y-3417420D01*
G01X4460620Y-3369810D02*
X4488180Y-3396260D01*
X4519670Y-3406840D01*
X4551170Y-3396260D01*
X4578730Y-3364520D01*
X4598420Y-3316880D01*
X4606290Y-3269260D01*
Y-3211050D01*
X4598420Y-3163430D01*
X4578730Y-3121090D01*
X4555110Y-3099920D01*
X4527550Y-3089340D01*
X4496050Y-3099920D01*
X4472430Y-3121090D01*
X4456680Y-3152840D01*
X4448810Y-3195180D01*
X4456680Y-3232210D01*
X4476370Y-3269260D01*
X4499990Y-3290430D01*
X4527550Y-3295720D01*
X4559040Y-3285140D01*
X4582670Y-3258680D01*
X4606290Y-3211050D01*
G01X4842510Y-3406840D02*
Y-3089340D01*
X4795270Y-3152840D01*
G01Y-3406840D02*
X4889750D01*
G01X5204710D02*
Y-3089340D01*
X5059040Y-3316880D01*
X5255900D01*
G01X5519670Y-3406840D02*
Y-3089340D01*
X5374000Y-3316880D01*
X5570860D01*
G01X3897630Y-2375600D02*
X3866130Y-2386180D01*
X3842510Y-2412640D01*
X3826760Y-2444390D01*
X3814950Y-2486730D01*
X3811020Y-2534350D01*
X3814950Y-2581980D01*
X3826760Y-2624310D01*
X3842510Y-2656070D01*
X3866130Y-2682520D01*
X3897630Y-2693100D01*
X3929120Y-2682520D01*
X3952750Y-2656070D01*
X3968500Y-2624310D01*
X3980310Y-2581980D01*
X3984240Y-2534350D01*
X3980310Y-2486730D01*
X3968500Y-2444390D01*
X3952750Y-2412640D01*
X3929120Y-2386180D01*
X3897630Y-2375600D01*
G01X4212590Y-2703680D02*
X4204710Y-2698390D01*
Y-2687810D01*
X4212590Y-2682520D01*
X4220470Y-2687810D01*
Y-2698390D01*
X4212590Y-2703680D01*
G01X4527550Y-2693100D02*
X4555110Y-2687810D01*
X4586600Y-2671940D01*
X4606290Y-2645490D01*
X4614160Y-2608430D01*
X4606290Y-2571400D01*
X4582670Y-2539650D01*
X4547230Y-2523760D01*
X4507870D01*
X4484240Y-2513180D01*
X4464550Y-2486730D01*
X4456680Y-2449690D01*
X4468500Y-2412640D01*
X4496050Y-2386180D01*
X4527550Y-2375600D01*
X4559040Y-2386180D01*
X4586600Y-2412640D01*
X4598420Y-2449690D01*
X4590540Y-2486730D01*
X4570860Y-2513180D01*
X4547230Y-2523760D01*
X4507870D01*
X4472430Y-2539650D01*
X4448810Y-2571400D01*
X4440940Y-2608430D01*
X4448810Y-2645490D01*
X4468500Y-2671940D01*
X4499990Y-2687810D01*
X4527550Y-2693100D01*
G01X4775580Y-2656070D02*
X4803140Y-2682520D01*
X4834630Y-2693100D01*
X4866130Y-2682520D01*
X4893690Y-2650780D01*
X4913380Y-2603140D01*
X4921250Y-2555520D01*
Y-2497310D01*
X4913380Y-2449690D01*
X4893690Y-2407350D01*
X4870070Y-2386180D01*
X4842510Y-2375600D01*
X4811010Y-2386180D01*
X4787390Y-2407350D01*
X4771640Y-2439100D01*
X4763770Y-2481440D01*
X4771640Y-2518470D01*
X4791330Y-2555520D01*
X4814950Y-2576690D01*
X4842510Y-2581980D01*
X4874000Y-2571400D01*
X4897630Y-2544940D01*
X4921250Y-2497310D01*
G01X5090540Y-2656070D02*
X5118100Y-2682520D01*
X5149590Y-2693100D01*
X5181090Y-2682520D01*
X5208650Y-2650780D01*
X5228340Y-2603140D01*
X5236210Y-2555520D01*
Y-2497310D01*
X5228340Y-2449690D01*
X5208650Y-2407350D01*
X5185030Y-2386180D01*
X5157470Y-2375600D01*
X5125970Y-2386180D01*
X5102350Y-2407350D01*
X5086600Y-2439100D01*
X5078730Y-2481440D01*
X5086600Y-2518470D01*
X5106290Y-2555520D01*
X5129910Y-2576690D01*
X5157470Y-2581980D01*
X5188960Y-2571400D01*
X5212590Y-2544940D01*
X5236210Y-2497310D01*
G01X5405500Y-2656070D02*
X5433060Y-2682520D01*
X5464550Y-2693100D01*
X5496050Y-2682520D01*
X5523610Y-2650780D01*
X5543300Y-2603140D01*
X5551170Y-2555520D01*
Y-2497310D01*
X5543300Y-2449690D01*
X5523610Y-2407350D01*
X5499990Y-2386180D01*
X5472430Y-2375600D01*
X5440930Y-2386180D01*
X5417310Y-2407350D01*
X5401560Y-2439100D01*
X5393690Y-2481440D01*
X5401560Y-2518470D01*
X5421250Y-2555520D01*
X5444870Y-2576690D01*
X5472430Y-2581980D01*
X5503920Y-2571400D01*
X5527550Y-2544940D01*
X5551170Y-2497310D01*
G01X4129910Y-1897670D02*
X4161410Y-1924120D01*
X4196840Y-1939990D01*
X4228340D01*
X4259830Y-1924120D01*
X4283460Y-1897670D01*
X4295270Y-1860610D01*
X4287400Y-1823580D01*
X4267710Y-1791830D01*
X4232270Y-1770650D01*
X4185030Y-1760070D01*
X4157470Y-1738910D01*
X4145660Y-1701870D01*
X4153540Y-1664820D01*
X4173220Y-1638370D01*
X4200780Y-1622490D01*
X4228340D01*
X4255900Y-1633070D01*
X4279520Y-1659530D01*
G01X4480310Y-1622490D02*
X4574790D01*
G01X4527550D02*
Y-1939990D01*
G01X4480310D02*
X4574790D01*
G01X4767700Y-1622490D02*
X4917320D01*
X4767700Y-1939990D01*
X4917320D01*
G01X5236210D02*
X5078730D01*
Y-1622490D01*
X5236210D01*
G01X5173220Y-1775940D02*
X5078730D01*
G01X4283460Y-4057080D02*
X4307070Y-4094130D01*
X4338570Y-4115290D01*
X4374010Y-4120580D01*
X4405510Y-4115290D01*
X4437000Y-4088840D01*
X4456680Y-4057080D01*
X4460620Y-4025330D01*
X4452750Y-3988300D01*
X4425190Y-3961830D01*
X4397630Y-3951240D01*
X4362190D01*
G01X4397630D02*
X4421250Y-3935370D01*
X4440940Y-3908920D01*
X4448810Y-3877170D01*
X4440940Y-3845410D01*
X4421250Y-3818960D01*
X4385820Y-3803080D01*
X4350390Y-3808370D01*
X4314950Y-3829540D01*
G01X4685030Y-4131160D02*
X4677150Y-4125870D01*
Y-4115290D01*
X4685030Y-4110000D01*
X4692910Y-4115290D01*
Y-4125870D01*
X4685030Y-4131160D01*
G01X4999990Y-3803080D02*
X4968490Y-3813660D01*
X4944870Y-3840120D01*
X4929120Y-3871870D01*
X4917310Y-3914210D01*
X4913380Y-3961830D01*
X4917310Y-4009460D01*
X4929120Y-4051790D01*
X4944870Y-4083550D01*
X4968490Y-4110000D01*
X4999990Y-4120580D01*
X5031480Y-4110000D01*
X5055110Y-4083550D01*
X5070860Y-4051790D01*
X5082670Y-4009460D01*
X5086600Y-3961830D01*
X5082670Y-3914210D01*
X5070860Y-3871870D01*
X5055110Y-3840120D01*
X5031480Y-3813660D01*
X4999990Y-3803080D01*
G01X7086600Y-1463740D02*
Y-4318700D01*
G01X7192900Y-4120580D02*
Y-3803080D01*
X7374000Y-4120580D01*
Y-3803080D01*
G01X7598410Y-4120580D02*
X7566910Y-4115290D01*
X7539360Y-4094130D01*
X7515730Y-4062370D01*
X7499980Y-4025330D01*
X7492110Y-3983000D01*
Y-3940660D01*
X7499980Y-3898330D01*
X7515730Y-3861290D01*
X7539360Y-3829540D01*
X7566910Y-3808370D01*
X7598410Y-3803080D01*
X7629900Y-3808370D01*
X7657460Y-3829540D01*
X7681090Y-3861290D01*
X7696840Y-3898330D01*
X7704710Y-3940660D01*
Y-3983000D01*
X7696840Y-4025330D01*
X7681090Y-4062370D01*
X7657460Y-4094130D01*
X7629900Y-4115290D01*
X7598410Y-4120580D01*
G01X7822820D02*
Y-3803080D01*
X8003920Y-4120580D01*
Y-3803080D01*
G01X8177150Y-4014750D02*
X8279510D01*
G01X8464550Y-4120580D02*
Y-3803080D01*
X8559040D01*
X8590530Y-3818960D01*
X8614160Y-3856000D01*
X8622030Y-3898330D01*
X8614160Y-3940660D01*
X8594470Y-3972420D01*
X8559040Y-3988300D01*
X8464550D01*
G01X8779510Y-3803080D02*
Y-4120580D01*
X8936990D01*
G01X9074780D02*
X9173210Y-3803080D01*
X9271640Y-4120580D01*
G01X9236200Y-4009460D02*
X9110210D01*
G01X9488170Y-3803080D02*
Y-4120580D01*
G01X9397620Y-3803080D02*
X9578720D01*
G01X9881870Y-4120580D02*
X9724390D01*
Y-3803080D01*
X9881870D01*
G01X9818880Y-3956530D02*
X9724390D01*
G01X10031480Y-4120580D02*
Y-3803080D01*
X10110210D01*
X10141710Y-3818960D01*
X10165330Y-3840120D01*
X10185020Y-3871870D01*
X10200770Y-3908920D01*
X10204700Y-3961830D01*
X10200770Y-4014750D01*
X10185020Y-4051790D01*
X10165330Y-4083550D01*
X10141710Y-4104710D01*
X10110210Y-4120580D01*
X10031480D01*
G01X7834630Y-3406840D02*
Y-3089340D01*
X7929120D01*
X7960610Y-3105220D01*
X7984240Y-3142260D01*
X7992110Y-3184590D01*
X7984240Y-3226920D01*
X7964550Y-3258680D01*
X7929120Y-3274560D01*
X7834630D01*
G01X8149590Y-3089340D02*
Y-3406840D01*
X8307070D01*
G01X8444860D02*
X8543290Y-3089340D01*
X8641720Y-3406840D01*
G01X8606280Y-3295720D02*
X8480290D01*
G01X8858250Y-3089340D02*
Y-3406840D01*
G01X8767700Y-3089340D02*
X8948800D01*
G01X9251950Y-3406840D02*
X9094470D01*
Y-3089340D01*
X9251950D01*
G01X9188960Y-3242790D02*
X9094470D01*
G01X9401560Y-3406840D02*
Y-3089340D01*
X9480290D01*
X9511790Y-3105220D01*
X9535410Y-3126380D01*
X9555100Y-3158130D01*
X9570850Y-3195180D01*
X9574780Y-3248090D01*
X9570850Y-3301010D01*
X9555100Y-3338050D01*
X9535410Y-3369810D01*
X9511790Y-3390970D01*
X9480290Y-3406840D01*
X9401560D01*
G01X7834630Y-2693100D02*
Y-2375600D01*
X7929120D01*
X7960610Y-2391480D01*
X7984240Y-2428520D01*
X7992110Y-2470850D01*
X7984240Y-2513180D01*
X7964550Y-2544940D01*
X7929120Y-2560820D01*
X7834630D01*
G01X8149590Y-2375600D02*
Y-2693100D01*
X8307070D01*
G01X8444860D02*
X8543290Y-2375600D01*
X8641720Y-2693100D01*
G01X8606280Y-2581980D02*
X8480290D01*
G01X8858250Y-2375600D02*
Y-2693100D01*
G01X8767700Y-2375600D02*
X8948800D01*
G01X9251950Y-2693100D02*
X9094470D01*
Y-2375600D01*
X9251950D01*
G01X9188960Y-2529050D02*
X9094470D01*
G01X9401560Y-2693100D02*
Y-2375600D01*
X9480290D01*
X9511790Y-2391480D01*
X9535410Y-2412640D01*
X9555100Y-2444390D01*
X9570850Y-2481440D01*
X9574780Y-2534350D01*
X9570850Y-2587270D01*
X9555100Y-2624310D01*
X9535410Y-2656070D01*
X9511790Y-2677230D01*
X9480290Y-2693100D01*
X9401560D01*
G01X7834630Y-1939990D02*
Y-1622490D01*
X7929120D01*
X7960610Y-1638370D01*
X7984240Y-1675410D01*
X7992110Y-1717740D01*
X7984240Y-1760070D01*
X7964550Y-1791830D01*
X7929120Y-1807710D01*
X7834630D01*
G01X8149590Y-1622490D02*
Y-1939990D01*
X8307070D01*
G01X8444860D02*
X8543290Y-1622490D01*
X8641720Y-1939990D01*
G01X8606280Y-1828870D02*
X8480290D01*
G01X8858250Y-1622490D02*
Y-1939990D01*
G01X8767700Y-1622490D02*
X8948800D01*
G01X9251950Y-1939990D02*
X9094470D01*
Y-1622490D01*
X9251950D01*
G01X9188960Y-1775940D02*
X9094470D01*
G01X9401560Y-1939990D02*
Y-1622490D01*
X9480290D01*
X9511790Y-1638370D01*
X9535410Y-1659530D01*
X9555100Y-1691280D01*
X9570850Y-1728330D01*
X9574780Y-1781240D01*
X9570850Y-1834160D01*
X9555100Y-1871200D01*
X9535410Y-1902960D01*
X9511790Y-1924120D01*
X9480290Y-1939990D01*
X9401560D01*
G01X10314940Y-1463740D02*
Y-4318700D01*
G01X10984230Y-1939990D02*
X10952730Y-1934700D01*
X10925180Y-1913540D01*
X10901550Y-1881780D01*
X10885800Y-1844740D01*
X10877930Y-1802410D01*
Y-1760070D01*
X10885800Y-1717740D01*
X10901550Y-1680700D01*
X10925180Y-1648950D01*
X10952730Y-1627780D01*
X10984230Y-1622490D01*
X11015720Y-1627780D01*
X11043280Y-1648950D01*
X11066910Y-1680700D01*
X11082660Y-1717740D01*
X11090530Y-1760070D01*
Y-1802410D01*
X11082660Y-1844740D01*
X11066910Y-1881780D01*
X11043280Y-1913540D01*
X11015720Y-1934700D01*
X10984230Y-1939990D01*
G01X11015720Y-1855320D02*
X11062970Y-1939990D01*
G01X11299190Y-1622490D02*
Y-1939990D01*
G01X11208640Y-1622490D02*
X11389740D01*
G01X11614150Y-1939990D02*
Y-1797120D01*
X11535410Y-1622490D01*
G01X11692890D02*
X11614150Y-1797120D01*
G01X11141710Y-3406840D02*
Y-3089340D01*
X11094470Y-3152840D01*
G01Y-3406840D02*
X11188950D01*
G01X11456670D02*
X11484230Y-3401550D01*
X11515720Y-3385680D01*
X11535410Y-3359230D01*
X11543280Y-3322170D01*
X11535410Y-3285140D01*
X11511790Y-3253390D01*
X11476350Y-3237500D01*
X11436990D01*
X11413360Y-3226920D01*
X11393670Y-3200470D01*
X11385800Y-3163430D01*
X11397620Y-3126380D01*
X11425170Y-3099920D01*
X11456670Y-3089340D01*
X11488160Y-3099920D01*
X11515720Y-3126380D01*
X11527540Y-3163430D01*
X11519660Y-3200470D01*
X11499980Y-3226920D01*
X11476350Y-3237500D01*
X11436990D01*
X11401550Y-3253390D01*
X11377930Y-3285140D01*
X11370060Y-3322170D01*
X11377930Y-3359230D01*
X11397620Y-3385680D01*
X11429110Y-3401550D01*
X11456670Y-3406840D01*
G01X11346430Y-4120580D02*
Y-3803080D01*
X11200760Y-4030620D01*
X11397620D01*
G01X11212580Y-2629600D02*
X11236190Y-2666650D01*
X11267690Y-2687810D01*
X11303130Y-2693100D01*
X11334630Y-2687810D01*
X11366120Y-2661360D01*
X11385800Y-2629600D01*
X11389740Y-2597850D01*
X11381870Y-2560820D01*
X11354310Y-2534350D01*
X11326750Y-2523760D01*
X11291310D01*
G01X11326750D02*
X11350370Y-2507890D01*
X11370060Y-2481440D01*
X11377930Y-2449690D01*
X11370060Y-2417930D01*
X11350370Y-2391480D01*
X11314940Y-2375600D01*
X11279510Y-2380890D01*
X11244070Y-2402060D01*
M02*
